<svg width="36" height="25" viewBox="0 0 36 25" fill="none" xmlns="http://www.w3.org/2000/svg">
<path d="M8.6608 24.4425C7.0369 24.4425 5.57088 24.0591 4.26274 23.2923C2.9546 22.5254 1.9171 21.3977 1.15026 19.9092C0.383421 18.4206 0 16.605 0 14.4623C0 13.1316 0.248096 11.846 0.744287 10.6056C1.26303 9.34253 1.96221 8.14716 2.84182 7.01945C3.74399 5.86919 4.78148 4.79786 5.9543 3.80548C7.12712 2.8131 8.37887 1.92221 9.70957 1.13281L12.9912 4.68509C11.1869 5.38427 9.70957 6.28644 8.5593 7.3916C7.40904 8.4742 6.56326 9.6019 6.02196 10.7747C5.48066 11.9475 5.21001 13.0301 5.21001 14.0225L3.99209 13.8872C4.60105 12.4663 5.37917 11.3611 6.32644 10.5717C7.29627 9.78234 8.63824 9.38764 10.3524 9.38764C11.435 9.38764 12.4837 9.69212 13.4987 10.3011C14.5136 10.91 15.3368 11.7558 15.9683 12.8384C16.6224 13.921 16.9495 15.1841 16.9495 16.6275C16.9495 18.2965 16.5435 19.7174 15.7315 20.8903C14.9421 22.0405 13.9159 22.9201 12.6529 23.5291C11.3899 24.1381 10.0592 24.4425 8.6608 24.4425ZM8.45781 20.0445C9.11188 20.0445 9.68701 19.9204 10.1832 19.6723C10.7019 19.4017 11.1079 19.0183 11.4011 18.5221C11.6943 18.0033 11.8409 17.3831 11.8409 16.6614C11.8409 15.9622 11.6831 15.387 11.3673 14.936C11.0741 14.4623 10.6681 14.1127 10.1494 13.8872C9.65318 13.6391 9.08933 13.515 8.45781 13.515C7.82629 13.515 7.25116 13.6391 6.73242 13.8872C6.23623 14.1127 5.83025 14.4285 5.51449 14.8345C5.22129 15.2179 5.07469 15.6351 5.07469 16.0862V16.8982C5.07469 17.4395 5.22129 17.9469 5.51449 18.4206C5.8077 18.8942 6.21367 19.2889 6.73242 19.6047C7.25116 19.8979 7.82629 20.0445 8.45781 20.0445Z" fill="#241401"/>
<circle cx="8.8346" cy="17.108" r="4.32288" fill="#241401"/>
<path d="M14.6611 0.943911C13.9093 -0.371559 12.4057 -0.371194 9.39844 1.31975C10.1502 2.63549 11.278 5.26704 12.5936 4.8571C15.037 4.01602 15.5409 2.48336 14.6611 0.943911Z" fill="#241401"/>
<path d="M27.7116 24.4425C26.0877 24.4425 24.6217 24.0591 23.3135 23.2923C22.0054 22.5254 20.9679 21.3977 20.201 19.9092C19.4342 18.4206 19.0508 16.605 19.0508 14.4623C19.0508 13.1316 19.2989 11.846 19.7951 10.6056C20.3138 9.34253 21.013 8.14716 21.8926 7.01945C22.7948 5.86919 23.8323 4.79786 25.0051 3.80548C26.1779 2.8131 27.4297 1.92221 28.7603 1.13281L32.042 4.68509C30.2376 5.38427 28.7603 6.28644 27.6101 7.3916C26.4598 8.4742 25.614 9.6019 25.0727 10.7747C24.5314 11.9475 24.2608 13.0301 24.2608 14.0225L23.0429 13.8872C23.6518 12.4663 24.4299 11.3611 25.3772 10.5717C26.3471 9.78234 27.689 9.38764 29.4031 9.38764C30.4857 9.38764 31.5345 9.69212 32.5494 10.3011C33.5644 10.91 34.3876 11.7558 35.0191 12.8384C35.6732 13.921 36.0002 15.1841 36.0002 16.6275C36.0002 18.2965 35.5943 19.7174 34.7823 20.8903C33.9929 22.0405 32.9667 22.9201 31.7037 23.5291C30.4406 24.1381 29.1099 24.4425 27.7116 24.4425ZM27.5086 20.0445C28.1627 20.0445 28.7378 19.9204 29.234 19.6723C29.7527 19.4017 30.1587 19.0183 30.4519 18.5221C30.7451 18.0033 30.8917 17.3831 30.8917 16.6614C30.8917 15.9622 30.7338 15.387 30.4181 14.936C30.1249 14.4623 29.7189 14.1127 29.2002 13.8872C28.704 13.6391 28.1401 13.515 27.5086 13.515C26.8771 13.515 26.3019 13.6391 25.7832 13.8872C25.287 14.1127 24.881 14.4285 24.5653 14.8345C24.2721 15.2179 24.1255 15.6351 24.1255 16.0862V16.8982C24.1255 17.4395 24.2721 17.9469 24.5653 18.4206C24.8585 18.8942 25.2645 19.2889 25.7832 19.6047C26.3019 19.8979 26.8771 20.0445 27.5086 20.0445Z" fill="#241401"/>
<circle cx="27.8854" cy="17.108" r="4.32288" fill="#241401"/>
<path d="M33.7119 0.943911C32.9601 -0.371559 31.4564 -0.371194 28.4492 1.31975C29.201 2.63549 30.3287 5.26704 31.6444 4.8571C34.0878 4.01602 34.5917 2.48336 33.7119 0.943911Z" fill="#241401"/>
</svg>
