<?xml version="1.0" encoding="UTF-8"?>
<svg id="_レイヤー_1" data-name="レイヤー 1" xmlns="http://www.w3.org/2000/svg" viewBox="0 0 56.35 56.51">
  <defs>
    <style>
      .cls-1 {
        fill: #241401;
      }

      .cls-2 {
        stroke-width: 5px;
      }

      .cls-2, .cls-3 {
        fill: none;
        stroke: #241401;
        stroke-miterlimit: 10;
      }

      .cls-3 {
        stroke-width: .25px;
      }
    </style>
  </defs>
  <g id="_色黒統一" data-name="色黒統一">
    <polygon class="cls-3" points="28.19 9.12 13.62 40.66 42.75 40.66 28.19 9.12"/>
    <path class="cls-1" d="M47.39,30.1c-.37,0-.68-.06-.93-.17-.25-.11-.46-.26-.62-.44-.16-.18-.27-.39-.34-.61-.07-.22-.11-.44-.11-.67,0-.28.05-.53.14-.75.1-.22.23-.41.4-.56.17-.16.36-.28.58-.36.22-.08.45-.12.69-.12h.28v-.67H8.72v.66h.19c.37,0,.68.06.93.17.25.11.46.26.62.44.16.18.27.39.34.61.07.22.11.44.11.67,0,.28-.05.53-.14.75-.1.22-.23.41-.4.56-.17.16-.36.28-.58.36-.22.08-.45.12-.69.12h-.37v.66h38.76v-.66h-.1ZM28.14,29.75c-.83,0-1.5-.67-1.5-1.5s.67-1.5,1.5-1.5,1.5.67,1.5,1.5-.67,1.5-1.5,1.5Z"/>
    <line class="cls-2" x1="28.18" y1="30.33" x2="28.18" y2="47.95"/>
    <path class="cls-1" d="M28.18,2.08c14.43,0,26.17,11.74,26.17,26.17s-11.74,26.17-26.17,26.17S2.01,42.69,2.01,28.25,13.75,2.08,28.18,2.08M28.18.08C12.62.08,0,12.69,0,28.25s12.61,28.17,28.17,28.17,28.17-12.61,28.17-28.17S43.74.08,28.18.08h0Z"/>
    <path class="cls-1" d="M28.18,9.06c10.58,0,19.19,8.61,19.19,19.19s-8.61,19.19-19.19,19.19-19.19-8.61-19.19-19.19S17.6,9.06,28.18,9.06M28.18,8.06c-11.15,0-20.19,9.04-20.19,20.19s9.04,20.19,20.19,20.19,20.19-9.04,20.19-20.19-9.04-20.19-20.19-20.19h0Z"/>
    <path class="cls-1" d="M10.37,14.94l23.87,11.72-5.28,7.3L10.37,14.94M6.43,12.08l3.35,3.43,18.59,19.02.68.7.57-.79,5.28-7.3.57-.79-.88-.43L10.74,14.2l-4.3-2.11h0Z"/>
    <path class="cls-1" d="M20.83,27.04l8.49,8.49,18.04-26.52-26.52,18.04ZM28.14,29.75c-.83,0-1.5-.67-1.5-1.5s.67-1.5,1.5-1.5,1.5.67,1.5,1.5-.67,1.5-1.5,1.5Z"/>
    <g id="oding">
      <path class="cls-1" d="M26.16,50.43c-.02.16-.08.31-.17.43-.1.12-.22.21-.37.27-.15.06-.31.08-.49.05-.18-.02-.33-.08-.45-.18-.12-.09-.22-.21-.27-.35-.06-.14-.08-.29-.05-.46.02-.16.08-.31.17-.43.09-.12.21-.21.36-.27.14-.06.31-.08.49-.05.18.02.33.08.46.17.13.09.22.21.28.35.06.14.08.3.06.48ZM25.78,50.38c.01-.11,0-.21-.03-.3-.04-.09-.09-.17-.16-.23-.07-.06-.16-.1-.26-.11-.1-.01-.2,0-.28.04-.09.04-.16.1-.21.18-.06.08-.09.17-.11.28-.01.11,0,.2.03.3.04.09.09.17.16.23s.16.1.26.11c.1.01.19,0,.28-.04.09-.04.16-.1.22-.18.06-.08.09-.17.11-.27Z"/>
      <path class="cls-1" d="M23.52,49.11c.15.04.28.1.38.2.1.1.17.22.22.37.04.15.04.31,0,.48-.04.18-.12.32-.22.43-.11.11-.23.18-.37.22-.14.04-.29.04-.45,0-.13-.03-.24-.08-.35-.17-.1-.08-.17-.18-.22-.29l.05-.12-.41,1.77-.36-.08.7-3.02.36.08-.09.4-.02-.11c.1-.08.22-.14.35-.17s.28-.04.43,0ZM23.33,49.39c-.1-.02-.19-.02-.27,0-.08.02-.16.05-.22.1-.06.05-.12.11-.16.19l-.07.31c0,.08.02.16.06.23.04.07.09.13.16.18.07.05.15.09.24.11.1.02.19.02.29,0,.09-.03.17-.08.24-.15.07-.07.12-.16.14-.27.02-.11.02-.21,0-.3-.03-.1-.08-.18-.15-.25-.07-.07-.16-.12-.25-.14Z"/>
      <path class="cls-1" d="M21.43,50.94c-.02.06-.05.1-.11.12-.06.02-.11.03-.17.01s-.1-.05-.13-.1c-.03-.05-.04-.11-.02-.16.02-.06.05-.1.11-.12.05-.02.11-.03.16-.01.05.02.1.05.13.1s.04.11.02.16ZM21.59,50.36l-.36-.11.49-1.58.36.11-.49,1.58Z"/>
      <path class="cls-1" d="M20.39,49.97l.12-.39v.06c-.1.1-.22.16-.36.18-.14.03-.28.01-.43-.05-.14-.06-.25-.14-.31-.27-.06-.12-.07-.25-.02-.39l.44-1.14.35.13-.39,1.02c-.03.08-.03.16,0,.23s.09.13.18.16c.09.03.18.04.27.02.09-.02.18-.07.25-.14.07-.07.13-.16.18-.28l.28-.73.35.13-.59,1.55-.32-.12Z"/>
      <path class="cls-1" d="M19.1,46.72c.11.05.2.12.27.19.07.07.13.14.18.22.05.08.09.16.12.25l-.31.13c-.04-.11-.09-.21-.16-.29-.06-.08-.14-.15-.24-.2-.11-.06-.22-.08-.31-.09-.1,0-.18.02-.25.06s-.13.11-.17.19l-.2.4v-.08c.1-.08.22-.13.37-.14.15-.01.3.02.46.1.13.07.24.16.32.29.08.13.13.27.14.42.01.15-.02.3-.09.45-.08.16-.18.27-.31.36-.13.08-.27.13-.42.14-.15,0-.3-.02-.44-.09-.13-.07-.24-.15-.32-.26-.08-.11-.13-.22-.14-.33l.05-.05-.17.27-.31-.15.75-1.49c.07-.13.16-.24.28-.31.12-.08.26-.11.42-.12s.33.04.5.13ZM18.86,48.47c.05-.1.07-.19.06-.3,0-.1-.04-.2-.09-.28s-.13-.15-.22-.2-.18-.07-.26-.07c-.09,0-.17.01-.24.05-.08.03-.14.08-.19.14l-.15.3c-.01.08,0,.16.01.24.02.08.06.15.12.21s.12.12.21.16c.09.05.19.07.29.06s.19-.03.28-.09c.08-.05.15-.13.2-.23Z"/>
    </g>
    <path id="C" class="cls-1" d="M28.96,52.79c-.24,0-.47-.03-.67-.09s-.39-.15-.54-.26c-.15-.12-.27-.26-.36-.42-.09-.17-.13-.36-.13-.58s.05-.42.14-.59.21-.31.37-.43c.16-.12.33-.2.53-.26.2-.06.4-.09.61-.09h.74v-.47h-.59c-.44,0-.82.06-1.12.17-.31.11-.56.26-.75.44-.19.18-.33.39-.42.61-.09.22-.13.44-.13.67,0,.28.06.53.18.75.12.22.28.41.48.56.2.16.44.28.7.36.26.08.54.12.84.12h.81v-.47h-.69Z"/>
    <g id="esign">
      <path class="cls-1" d="M30.98,7.2c-.19-.02-.34-.08-.47-.18s-.22-.21-.27-.35c-.06-.14-.08-.3-.05-.46.02-.16.08-.3.18-.42.1-.12.22-.21.37-.27.15-.06.31-.08.48-.06.22.03.39.11.51.26s.2.33.23.56l-1.42.3-.06-.23,1.16-.27-.08.05c-.02-.09-.06-.17-.13-.25-.07-.07-.16-.12-.28-.13-.1-.01-.19,0-.28.04-.08.04-.15.1-.21.17-.06.08-.09.17-.11.28-.01.11,0,.21.03.31s.09.17.17.23.17.1.27.11c.07,0,.14,0,.21-.01.07-.02.14-.04.21-.08l.13.3c-.09.04-.19.08-.29.1-.11.02-.21.03-.31.01Z"/>
      <path class="cls-1" d="M32.45,7.44c-.12-.02-.22-.07-.32-.13-.1-.06-.18-.14-.23-.24l.2-.18c.06.08.12.14.18.19.06.05.13.08.2.09.05.01.1.01.15,0,.05,0,.09-.02.12-.04s.06-.06.07-.11c.01-.06,0-.11-.03-.15-.03-.04-.07-.08-.13-.11-.05-.03-.11-.06-.18-.1-.12-.07-.21-.15-.27-.25s-.07-.2-.05-.31c.02-.09.06-.16.11-.23.06-.07.14-.11.23-.14.1-.03.21-.03.33,0,.11.02.21.06.29.1.08.05.16.11.22.19l-.19.2c-.04-.06-.08-.11-.14-.15-.06-.04-.12-.06-.17-.07-.05,0-.09-.01-.14,0-.04,0-.08.02-.11.04-.03.02-.05.05-.06.1-.01.05,0,.1.03.14s.07.08.13.11c.05.03.11.07.16.1.07.04.14.09.19.14.05.05.1.11.12.18.03.07.03.14.01.23-.02.1-.06.18-.12.25-.06.07-.15.12-.25.15s-.23.03-.37,0Z"/>
      <path class="cls-1" d="M33.83,6.03l.36.09-.42,1.6-.36-.1.42-1.6ZM33.96,5.44c.01-.06.05-.1.1-.13.06-.03.11-.03.16-.02.05.01.1.05.13.1.03.05.04.1.03.16-.01.06-.05.1-.1.13s-.11.03-.16.02c-.05-.01-.1-.05-.13-.09s-.04-.1-.03-.16Z"/>
      <path class="cls-1" d="M34.63,8.84c-.12-.04-.21-.09-.29-.15-.08-.06-.15-.12-.2-.2-.06-.07-.11-.15-.16-.23l.29-.17c.06.1.12.19.19.26.07.07.16.13.27.16.12.04.23.05.32.04.09-.01.17-.04.24-.1.06-.05.11-.13.15-.22l.15-.42v.08c-.07.09-.19.16-.33.19-.14.03-.3.02-.47-.03-.14-.05-.26-.13-.36-.24-.1-.11-.16-.25-.19-.4-.03-.15-.02-.3.03-.46.05-.16.14-.3.26-.4s.25-.17.4-.2.3-.02.44.03c.14.05.26.12.35.21.1.1.16.2.18.3l-.04.06.14-.29.33.11-.53,1.58c-.05.14-.13.26-.24.35-.11.09-.25.15-.41.17-.16.02-.33,0-.51-.06ZM34.62,7.08c-.03.1-.04.2-.02.3s.07.19.13.26c.07.08.15.13.25.16.09.03.18.04.27.03s.17-.04.24-.08c.07-.04.13-.1.17-.17l.11-.31c0-.08-.01-.16-.05-.24-.03-.07-.08-.14-.14-.2-.06-.06-.14-.1-.23-.13-.1-.03-.2-.04-.29-.02-.1.02-.18.06-.26.13-.08.06-.13.15-.17.26Z"/>
      <path class="cls-1" d="M37.08,7.11l-.14.38.02-.06c.1-.09.21-.15.35-.17.14-.02.28,0,.43.07.14.06.24.16.29.28.05.12.05.25,0,.39l-.5,1.12-.34-.15.44-1c.03-.08.04-.16.02-.23-.02-.07-.08-.13-.18-.17-.09-.04-.17-.05-.27-.03s-.18.06-.26.13c-.08.07-.14.16-.19.27l-.31.71-.34-.15.67-1.51.31.14Z"/>
    </g>
    <path id="D" class="cls-1" d="M29.57,4.46c-.07-.22-.19-.42-.34-.61-.16-.18-.36-.33-.62-.44-.25-.11-.56-.17-.93-.17h-1v3.68h1.18c.24,0,.48-.04.69-.12.22-.08.41-.2.58-.36.17-.16.3-.34.4-.56.1-.22.14-.47.14-.75,0-.22-.04-.45-.11-.67Z"/>
  </g>
</svg>