<?xml version="1.0" encoding="UTF-8"?>
<svg id="logo" xmlns="http://www.w3.org/2000/svg" viewBox="0 0 166 56.51">
  <defs>
    <style>
      .cls-1 {
        fill: #171717;
      }

      .cls-2 {
        fill: #241401;
      }
    </style>
  </defs>
  <g id="YUKI_TAKEDAロゴ" data-name="YUKI TAKEDAロゴ">
    <path class="cls-1" d="M166,56.51l-11.22-28.18h-.33l-11.22,28.18h22.77ZM154.28,42.92l2.97,8.16h-6.06l3.09-8.16Z"/>
    <path class="cls-1" d="M140.34,35.81c-1.06-2.21-2.75-4.01-5.07-5.4-2.32-1.39-5.28-2.09-8.88-2.09h-8.42v28.18h9.8c2.58,0,4.95-.55,7.1-1.66,2.16-1.11,3.87-2.7,5.15-4.77,1.28-2.07,1.91-4.45,1.91-7.16,0-2.53-.53-4.89-1.59-7.1ZM133.66,48.93c-1.69,1.48-3.97,2.22-6.85,2.22h-3.29v-17.5h4.52c1.1,0,2.26.26,3.5.77,1.24.51,2.32,1.43,3.25,2.76.93,1.33,1.4,3.12,1.4,5.36,0,2.78-.84,4.92-2.53,6.39Z"/>
    <polygon class="cls-1" points="97.4 45.06 109.5 45.06 109.5 39.7 97.4 39.7 97.4 33.69 111.07 33.69 111.07 28.33 91.85 28.33 91.85 56.51 111.61 56.51 111.61 51.15 97.4 51.15 97.4 45.06"/>
    <polygon class="cls-2" points="73.28 40.96 84.92 28.33 77.72 28.33 68.62 38.6 67.81 38.6 67.84 38.36 67.84 28.33 62.21 28.33 62.21 56.51 67.84 56.51 67.84 45.86 67.84 45.86 70.21 45.86 77.91 56.51 84.96 56.51 73.28 40.96"/>
    <path class="cls-1" d="M55.36,56.51l-11.22-28.18h-.33l-11.22,28.18h22.77ZM43.64,42.92l2.97,8.16h-6.06l3.09-8.16Z"/>
    <polygon class="cls-1" points="17.48 35.21 25.71 35.21 25.71 28.57 2.91 28.57 2.91 35.21 10.82 35.21 10.82 56.51 17.48 56.51 17.48 35.21"/>
    <rect class="cls-1" x="91.85" width="5.6" height="28.34"/>
    <polygon class="cls-2" points="73.28 12.8 84.92 .16 77.72 .16 68.57 10.49 67.81 10.49 67.84 10.19 67.84 .16 62.21 .16 62.21 28.34 67.84 28.34 67.84 17.76 70.26 17.76 77.91 28.34 84.96 28.34 73.28 12.8"/>
    <path class="cls-1" d="M38.21,27.28c1.74.91,3.65,1.36,5.74,1.36s4.01-.45,5.76-1.36c1.75-.9,3.13-2.17,4.15-3.79,1.02-1.62,1.53-3.44,1.53-5.46V.16h-5.48v17.76c0,.89-.26,1.75-.79,2.56-.52.82-1.24,1.48-2.16,1.99-.92.51-1.93.77-3.03.77-1.02,0-1.98-.25-2.87-.77-.89-.51-1.61-1.17-2.14-1.99-.54-.82-.8-1.67-.8-2.56V.16h-5.55v17.88c0,2.02.5,3.83,1.51,5.46s2.38,2.88,4.12,3.79Z"/>
    <polygon class="cls-1" points="21.22 .16 14.8 13.25 13.97 13.25 7.4 .16 0 .16 11.21 20.93 11.21 26.38 11.21 28.34 11.21 28.57 17.2 28.57 17.2 28.34 17.2 26.38 17.2 20.93 28.62 .16 21.22 .16"/>
  </g>
</svg>