<svg width="145" height="145" viewBox="0 0 145 145" fill="none" xmlns="http://www.w3.org/2000/svg">
<path d="M72.5451 23.2656L35.0469 104.439H110.018L72.5451 23.2656Z" stroke="#FFFBF5" stroke-width="0.4" stroke-miterlimit="10"/>
<path d="M121.963 77.2618C121.011 77.2618 120.213 77.1074 119.569 76.8243C118.926 76.5412 118.385 76.1552 117.974 75.6919C117.562 75.2286 117.279 74.6882 117.099 74.122C116.919 73.5558 116.816 72.9895 116.816 72.3976C116.816 71.677 116.944 71.0336 117.176 70.4674C117.433 69.9012 117.768 69.4122 118.205 69.0261C118.643 68.6143 119.132 68.3055 119.698 68.0996C120.264 67.8937 120.856 67.7908 121.474 67.7908H122.195V66.0664H22.4395V67.765H22.9284C23.8807 67.765 24.6785 67.9194 25.322 68.2025C25.9654 68.4856 26.5058 68.8717 26.9176 69.335C27.3294 69.7982 27.6125 70.3387 27.7927 70.9049C27.9728 71.4711 28.0758 72.0373 28.0758 72.6292C28.0758 73.3499 27.9471 73.9933 27.7155 74.5595C27.4581 75.1257 27.1235 75.6147 26.686 76.0007C26.2485 76.4125 25.7595 76.7214 25.1933 76.9272C24.6271 77.1331 24.0351 77.2361 23.4174 77.2361H22.4652V78.9347H122.22V77.2361H121.963V77.2618ZM72.4199 76.361C70.2838 76.361 68.5594 74.6367 68.5594 72.5006C68.5594 70.3644 70.2838 68.6401 72.4199 68.6401C74.5561 68.6401 76.2804 70.3644 76.2804 72.5006C76.2804 74.6367 74.5561 76.361 72.4199 76.361Z" fill="#DC6810"/>
<path d="M72.5254 77.8516V123.199" stroke="#DC6810" stroke-width="5" stroke-miterlimit="10"/>
<path d="M72.5257 5.14732C109.664 5.14732 139.878 35.3621 139.878 72.5C139.878 109.638 109.664 139.853 72.5257 139.853C35.3878 139.853 5.17306 109.664 5.17306 72.5C5.17306 35.3364 35.3878 5.14732 72.5257 5.14732ZM72.5257 0C32.4796 0 0 32.4538 0 72.5C0 112.546 32.4538 145 72.5 145C112.546 145 145 112.546 145 72.5C145 32.4538 112.572 0 72.5257 0Z" fill="#DC6810"/>
<path d="M72.5306 23.1127C99.7599 23.1127 121.919 45.2719 121.919 72.5013C121.919 99.7306 99.7599 121.89 72.5306 121.89C45.3012 121.89 23.142 99.7306 23.142 72.5013C23.142 45.2719 45.3012 23.1127 72.5306 23.1127ZM72.5306 20.5391C43.8342 20.5391 20.5684 43.8049 20.5684 72.5013C20.5684 101.198 43.8342 124.463 72.5306 124.463C101.227 124.463 124.493 101.198 124.493 72.5013C124.493 43.8049 101.227 20.5391 72.5306 20.5391Z" fill="#DC6810"/>
<path d="M26.6871 38.2435L88.1204 68.4068L74.5314 87.1945L26.6871 38.2435ZM16.5469 30.8828L25.1686 39.7105L73.013 88.6615L74.7631 90.463L76.2301 88.4298L89.819 69.6421L91.286 67.6089L89.0211 66.5023L27.6393 36.339L16.5726 30.9085L16.5469 30.8828Z" fill="#DC6810"/>
<path d="M53.6055 69.3875L75.4558 91.2378L121.885 22.9844L53.6312 69.4132L53.6055 69.3875ZM72.4189 76.3621C70.2828 76.3621 68.5584 74.6377 68.5584 72.5016C68.5584 70.3655 70.2828 68.6411 72.4189 68.6411C74.5551 68.6411 76.2794 70.3655 76.2794 72.5016C76.2794 74.6377 74.5551 76.3621 72.4189 76.3621Z" fill="#DC6810"/>
<path d="M67.3399 129.583C67.2885 129.995 67.134 130.381 66.9024 130.69C66.645 130.999 66.3362 131.231 65.9502 131.385C65.5641 131.539 65.1523 131.591 64.6891 131.514C64.2258 131.462 63.8398 131.308 63.5309 131.05C63.2221 130.819 62.9647 130.51 62.836 130.15C62.6816 129.789 62.6301 129.403 62.7073 128.966C62.7588 128.554 62.9132 128.168 63.1449 127.859C63.3765 127.55 63.6853 127.319 64.0714 127.164C64.4317 127.01 64.8692 126.958 65.3325 127.035C65.7957 127.087 66.1818 127.241 66.5164 127.473C66.8509 127.705 67.0826 128.013 67.237 128.374C67.3914 128.734 67.4429 129.146 67.3914 129.609L67.3399 129.583ZM66.3619 129.455C66.3877 129.172 66.3619 128.914 66.2847 128.683C66.1818 128.451 66.0531 128.245 65.8729 128.091C65.6928 127.936 65.4612 127.833 65.2038 127.808C64.9464 127.782 64.6891 127.808 64.4832 127.911C64.2515 128.013 64.0714 128.168 63.9427 128.374C63.7883 128.58 63.7111 128.811 63.6596 129.094C63.6339 129.378 63.6596 129.609 63.7368 129.867C63.8398 130.098 63.9684 130.304 64.1486 130.458C64.3288 130.613 64.5604 130.716 64.8177 130.742C65.0751 130.767 65.3067 130.742 65.5384 130.639C65.77 130.536 65.9502 130.381 66.1046 130.175C66.259 129.969 66.3362 129.738 66.3877 129.48L66.3619 129.455Z" fill="#DC6810"/>
<path d="M60.5306 126.189C60.9166 126.292 61.2512 126.446 61.5085 126.704C61.7659 126.961 61.9461 127.27 62.0748 127.656C62.1777 128.042 62.1777 128.454 62.0748 128.891C61.9718 129.355 61.7659 129.715 61.5085 129.998C61.2254 130.281 60.9166 130.461 60.5563 130.564C60.196 130.667 59.8099 130.667 59.3981 130.564C59.0636 130.487 58.7805 130.358 58.4974 130.127C58.24 129.921 58.0598 129.663 57.9312 129.38L58.0598 129.071L57.0046 133.627L56.0781 133.421L57.8797 125.648L58.8062 125.854L58.5746 126.884L58.5231 126.601C58.7805 126.395 59.0893 126.24 59.4239 126.163C59.7585 126.086 60.1445 126.06 60.5306 126.163V126.189ZM60.0416 126.91C59.7842 126.858 59.5526 126.858 59.3467 126.91C59.1408 126.961 58.9349 127.038 58.7805 127.167C58.626 127.296 58.4716 127.45 58.3687 127.656L58.1885 128.454C58.1885 128.66 58.24 128.866 58.3429 129.046C58.4459 129.226 58.5746 129.38 58.7547 129.509C58.9349 129.638 59.1408 129.741 59.3724 129.792C59.6298 129.843 59.8614 129.843 60.1188 129.792C60.3504 129.715 60.5563 129.586 60.7364 129.406C60.9166 129.226 61.0453 128.994 61.0968 128.711C61.1482 128.428 61.1482 128.171 61.0968 127.939C61.0195 127.682 60.8909 127.476 60.7107 127.296C60.5306 127.115 60.2989 126.987 60.0673 126.935L60.0416 126.91Z" fill="#DC6810"/>
<path d="M55.1608 130.897C55.1093 131.051 55.0321 131.154 54.8777 131.206C54.7233 131.257 54.5946 131.283 54.4402 131.231C54.2858 131.18 54.1828 131.103 54.1056 130.974C54.0284 130.845 54.0026 130.691 54.0541 130.562C54.1056 130.408 54.1828 130.305 54.3372 130.253C54.4659 130.202 54.6203 130.176 54.749 130.228C54.8777 130.279 55.0064 130.356 55.0836 130.485C55.1608 130.614 55.1865 130.768 55.1351 130.897H55.1608ZM55.5726 129.404L54.6461 129.121L55.9072 125.055L56.8337 125.338L55.5726 129.404Z" fill="#DC6810"/>
<path d="M52.4803 128.401L52.7891 127.398V127.552C52.5317 127.809 52.2229 127.964 51.8626 128.015C51.5023 128.092 51.142 128.041 50.7559 127.886C50.3956 127.732 50.1125 127.526 49.9581 127.192C49.8037 126.883 49.7779 126.548 49.9066 126.188L51.039 123.254L51.9398 123.588L50.9361 126.214C50.8589 126.42 50.8589 126.625 50.9361 126.806C51.0133 126.986 51.1677 127.14 51.3993 127.217C51.631 127.295 51.8626 127.32 52.0942 127.269C52.3259 127.217 52.5575 127.089 52.7376 126.908C52.9178 126.728 53.0722 126.497 53.2009 126.188L53.9215 124.309L54.8223 124.644L53.3038 128.633L52.4803 128.324V128.401Z" fill="#DC6810"/>
<path d="M49.1625 120.037C49.4456 120.166 49.6772 120.346 49.8574 120.526C50.0375 120.706 50.1919 120.886 50.3206 121.092C50.4493 121.298 50.5523 121.504 50.6295 121.736L49.8316 122.07C49.7287 121.787 49.6 121.53 49.4198 121.324C49.2654 121.118 49.0595 120.938 48.8022 120.809C48.5191 120.655 48.236 120.603 48.0043 120.578C47.747 120.578 47.5411 120.629 47.3609 120.732C47.1808 120.835 47.0263 121.015 46.9234 121.221L46.4087 122.25V122.044C46.666 121.839 46.9749 121.71 47.3609 121.684C47.747 121.658 48.133 121.736 48.5448 121.942C48.8794 122.122 49.1625 122.353 49.3684 122.688C49.5743 123.022 49.7029 123.383 49.7287 123.769C49.7544 124.155 49.6772 124.541 49.4971 124.927C49.2912 125.339 49.0338 125.622 48.6992 125.854C48.3646 126.059 48.0043 126.188 47.6183 126.214C47.2322 126.214 46.8462 126.162 46.4859 125.982C46.1513 125.802 45.8682 125.596 45.6623 125.313C45.4564 125.03 45.3277 124.747 45.302 124.464L45.4307 124.335L44.9931 125.03L44.1953 124.644L46.1256 120.809C46.3057 120.475 46.5373 120.191 46.8462 120.011C47.155 119.805 47.5153 119.728 47.9271 119.702C48.3389 119.677 48.7764 119.805 49.214 120.037H49.1625ZM48.5448 124.541C48.6735 124.284 48.725 124.052 48.6992 123.769C48.6992 123.511 48.5963 123.254 48.4676 123.048C48.3389 122.842 48.133 122.662 47.9014 122.533C47.6698 122.405 47.4381 122.353 47.2322 122.353C47.0006 122.353 46.7947 122.379 46.6146 122.482C46.4087 122.559 46.2542 122.688 46.1256 122.842L45.7395 123.614C45.7138 123.82 45.7395 124.026 45.7652 124.232C45.8167 124.438 45.9197 124.618 46.0741 124.773C46.2285 124.927 46.3829 125.081 46.6146 125.184C46.8462 125.313 47.1035 125.365 47.3609 125.339C47.6183 125.313 47.8499 125.262 48.0815 125.107C48.2874 124.978 48.4676 124.773 48.5963 124.515L48.5448 124.541Z" fill="#DC6810"/>
<path d="M74.5353 135.659C73.9177 135.659 73.3257 135.582 72.811 135.428C72.2963 135.273 71.8073 135.042 71.4212 134.758C71.0352 134.45 70.7263 134.089 70.4947 133.677C70.2631 133.24 70.1601 132.751 70.1601 132.185C70.1601 131.619 70.2888 131.104 70.5204 130.666C70.7521 130.229 71.0609 129.868 71.4727 129.56C71.8845 129.251 72.322 129.045 72.8367 128.89C73.3515 128.736 73.8662 128.659 74.4067 128.659H76.3112V127.449H74.7927C73.6603 127.449 72.6823 127.604 71.9102 127.887C71.1124 128.17 70.469 128.556 69.98 129.019C69.491 129.482 69.1307 130.023 68.899 130.589C68.6674 131.155 68.5645 131.722 68.5645 132.313C68.5645 133.034 68.7189 133.677 69.0277 134.244C69.3366 134.81 69.7483 135.299 70.2631 135.685C70.7778 136.097 71.3955 136.406 72.0646 136.611C72.7338 136.817 73.4544 136.92 74.2265 136.92H76.3112V135.711H74.5353V135.659Z" fill="#DC6810"/>
<path d="M79.7405 18.3256C79.2515 18.2741 78.8655 18.1197 78.5309 17.8623C78.1963 17.605 77.9647 17.3219 77.836 16.9616C77.6816 16.6012 77.6301 16.1895 77.7073 15.7777C77.7588 15.3659 77.9132 15.0056 78.1706 14.6967C78.428 14.3879 78.7368 14.1563 79.1229 14.0018C79.5089 13.8474 79.9207 13.796 80.3582 13.8474C80.9244 13.9246 81.3619 14.1305 81.6708 14.5166C81.9796 14.9026 82.1855 15.3659 82.2627 15.9578L78.6081 16.7299L78.4537 16.138L81.4392 15.4431L81.2333 15.5718C81.1818 15.3402 81.0788 15.1343 80.8987 14.9284C80.7185 14.7482 80.4869 14.6195 80.1781 14.5938C79.9207 14.5681 79.6891 14.5938 79.4574 14.6967C79.2515 14.7997 79.0714 14.9541 78.917 15.1343C78.7625 15.3402 78.6853 15.5718 78.6339 15.8549C78.6081 16.138 78.6339 16.3954 78.7111 16.6527C78.7883 16.9101 78.9427 17.0902 79.1486 17.2447C79.3545 17.3991 79.5861 17.502 79.8435 17.5278C80.0236 17.5278 80.2038 17.5278 80.384 17.502C80.5641 17.4506 80.7443 17.3991 80.9244 17.2961L81.259 18.0682C81.0274 18.1712 80.77 18.2741 80.5126 18.3256C80.2295 18.3771 79.9722 18.4028 79.7148 18.3513L79.7405 18.3256Z" fill="#DC6810"/>
<path d="M83.5308 18.9432C83.2219 18.8918 82.9645 18.7631 82.7072 18.6087C82.4498 18.4542 82.2439 18.2484 82.1152 17.991L82.63 17.5277C82.7844 17.7336 82.9388 17.888 83.0932 18.0167C83.2476 18.1454 83.4278 18.2226 83.608 18.2484C83.7366 18.2741 83.8653 18.2741 83.994 18.2484C84.1227 18.2484 84.2256 18.1969 84.3028 18.1454C84.3801 18.0939 84.4573 17.991 84.483 17.8623C84.5087 17.7079 84.483 17.5792 84.4058 17.4763C84.3286 17.3733 84.2256 17.2704 84.0712 17.1932C83.9425 17.1159 83.7881 17.0387 83.608 16.9358C83.2991 16.7556 83.0675 16.5497 82.9131 16.2924C82.7586 16.035 82.7329 15.7776 82.7844 15.4945C82.8359 15.2629 82.9388 15.0828 83.0675 14.9026C83.2219 14.7224 83.4278 14.6195 83.6594 14.5423C83.9168 14.4651 84.1999 14.4651 84.5087 14.5423C84.7918 14.5938 85.0492 14.6967 85.2551 14.7996C85.461 14.9283 85.6669 15.0828 85.8213 15.2886L85.3323 15.8034C85.2294 15.649 85.1264 15.5203 84.972 15.4173C84.8176 15.3144 84.6632 15.2629 84.5345 15.2372C84.4058 15.2372 84.3028 15.2114 84.1742 15.2372C84.0712 15.2372 83.9683 15.2886 83.8911 15.3401C83.8139 15.3916 83.7624 15.4688 83.7366 15.5975C83.7109 15.7262 83.7366 15.8548 83.8139 15.9578C83.8911 16.0607 83.994 16.1637 84.1484 16.2409C84.2771 16.3181 84.4315 16.4211 84.5602 16.4983C84.7404 16.6012 84.9205 16.7299 85.0492 16.8586C85.1779 16.9873 85.3066 17.1417 85.358 17.3218C85.4353 17.502 85.4353 17.6821 85.3838 17.9138C85.3323 18.1711 85.2294 18.377 85.0749 18.5572C84.9205 18.7373 84.6889 18.866 84.4315 18.9432C84.1742 19.0205 83.8396 19.0205 83.4793 18.9432H83.5308Z" fill="#DC6810"/>
<path d="M87.077 15.3144L88.0035 15.5461L86.9226 19.6639L85.9961 19.4066L87.077 15.2887V15.3144ZM87.4116 13.796C87.4373 13.6416 87.5403 13.5386 87.669 13.4614C87.8234 13.3842 87.9521 13.3842 88.0808 13.4099C88.2094 13.4357 88.3381 13.5386 88.4153 13.6673C88.4925 13.796 88.5183 13.9247 88.4925 14.0791C88.4668 14.2335 88.3639 14.3364 88.2352 14.4137C88.1065 14.4909 87.9521 14.4909 87.8234 14.4651C87.6947 14.4394 87.566 14.3364 87.4888 14.2335C87.4116 14.1305 87.3859 13.9761 87.4116 13.8217V13.796Z" fill="#DC6810"/>
<path d="M89.1377 22.5456C88.8289 22.4426 88.5973 22.314 88.3914 22.1595C88.1855 22.0051 88.0053 21.8507 87.8766 21.6448C87.7222 21.4647 87.5935 21.2588 87.4648 21.0529L88.2112 20.6153C88.3656 20.8727 88.52 21.1043 88.7002 21.2845C88.8804 21.4647 89.112 21.6191 89.3951 21.6963C89.7039 21.7992 89.987 21.825 90.2187 21.7992C90.4503 21.7735 90.6562 21.6963 90.8363 21.5419C90.9908 21.4132 91.1194 21.2073 91.2224 20.9757L91.6084 19.8947V20.1006C91.4283 20.3322 91.1194 20.5124 90.7591 20.5896C90.3988 20.6668 89.987 20.6411 89.5495 20.5124C89.1892 20.3837 88.8804 20.1778 88.623 19.8947C88.3656 19.6116 88.2112 19.2513 88.134 18.8653C88.0568 18.4792 88.0825 18.0932 88.2112 17.6814C88.3399 17.2696 88.5715 16.9093 88.8804 16.6519C89.1892 16.3945 89.5238 16.2144 89.9098 16.1372C90.2959 16.06 90.6819 16.0857 91.0422 16.2144C91.4025 16.3431 91.7114 16.5232 91.943 16.7549C92.2004 17.0122 92.3548 17.2696 92.4063 17.527L92.3033 17.6814L92.6636 16.935L93.513 17.2181L92.1489 21.2845C92.0202 21.6448 91.8143 21.9537 91.5312 22.1853C91.2481 22.4169 90.8878 22.5713 90.476 22.6228C90.0642 22.6743 89.6267 22.6228 89.1635 22.4684L89.1377 22.5456ZM89.112 18.016C89.0348 18.2733 89.009 18.5307 89.0605 18.7881C89.112 19.0454 89.2407 19.277 89.3951 19.4572C89.5752 19.6631 89.7811 19.7918 90.0385 19.869C90.2701 19.9462 90.5018 19.9719 90.7334 19.9462C90.965 19.9205 91.1709 19.8433 91.3511 19.7403C91.5312 19.6374 91.6856 19.4829 91.7886 19.3028L92.0717 18.5049C92.0717 18.2991 92.046 18.0932 91.943 17.8873C91.8658 17.7071 91.7371 17.527 91.5827 17.3725C91.4283 17.2181 91.2224 17.1152 90.9908 17.038C90.7334 16.9608 90.476 16.935 90.2444 16.9865C89.987 17.038 89.7811 17.1409 89.5752 17.3211C89.3694 17.4755 89.2407 17.7071 89.1377 17.9902L89.112 18.016Z" fill="#DC6810"/>
<path d="M95.4363 18.094L95.0759 19.072L95.1274 18.9176C95.3848 18.6859 95.6679 18.5315 96.0282 18.48C96.3885 18.4286 96.7488 18.48 97.1349 18.6602C97.4952 18.8146 97.7525 19.072 97.8812 19.3808C98.0099 19.6897 98.0099 20.0242 97.8812 20.3846L96.5944 23.2671L95.7194 22.881L96.8518 20.3073C96.929 20.1015 96.9547 19.8956 96.9032 19.7154C96.8518 19.5352 96.6973 19.3808 96.44 19.2779C96.2084 19.1749 96.0025 19.1492 95.7451 19.2007C95.4877 19.2521 95.2818 19.3551 95.0759 19.5352C94.87 19.7154 94.7156 19.947 94.5869 20.2301L93.7891 22.0574L92.9141 21.6714L94.6384 17.7852L95.4363 18.1455V18.094Z" fill="#DC6810"/>
<path d="M76.1019 11.2727C75.9218 10.7065 75.6129 10.1917 75.2269 9.70274C74.8151 9.23949 74.3004 8.85344 73.6312 8.57033C72.9878 8.28723 72.19 8.13281 71.2377 8.13281H68.6641V17.6039H71.701C72.3187 17.6039 72.9363 17.5009 73.4768 17.295C74.043 17.0891 74.532 16.7803 74.9695 16.3685C75.407 15.9567 75.7416 15.4935 75.999 14.9273C76.2564 14.3611 76.3593 13.7177 76.3593 12.997C76.3593 12.4308 76.2564 11.8389 76.0762 11.2727H76.1019Z" fill="#DC6810"/>
</svg>
