<svg width="165" height="176" viewBox="0 0 165 176" fill="none" xmlns="http://www.w3.org/2000/svg">
<mask id="path-1-outside-1_1922_5538" maskUnits="userSpaceOnUse" x="-0.550781" y="-0.0585938" width="166" height="176" fill="black">
<rect fill="white" x="-0.550781" y="-0.0585938" width="166" height="176"/>
<path d="M2.99922 71.9414V3.0014H3.08922L39.8992 55.2014L34.3192 53.9414L71.0392 3.0014H71.2192V71.9414H58.1692V32.4314L58.9792 39.1814L36.5692 71.0414H36.3892L13.3492 39.1814L15.5992 32.9714V71.9414H2.99922ZM89.421 90.8414L115.611 32.6114H126.951L101.571 90.8414H89.421ZM99.951 72.1214L80.691 32.6114H94.821L109.671 65.8214L99.951 72.1214ZM2.99922 104.701H16.0492V158.341H47.1892V170.941H2.99922V104.701ZM58.5855 131.611H71.1855V170.941H58.5855V131.611ZM58.3155 117.661C58.3155 115.801 59.0355 114.271 60.4755 113.071C61.9755 111.871 63.5655 111.271 65.2455 111.271C66.9255 111.271 68.4555 111.871 69.8355 113.071C71.2755 114.271 71.9955 115.801 71.9955 117.661C71.9955 119.521 71.2755 121.051 69.8355 122.251C68.4555 123.391 66.9255 123.961 65.2455 123.961C63.5655 123.961 61.9755 123.391 60.4755 122.251C59.0355 121.051 58.3155 119.521 58.3155 117.661ZM87.9416 170.941V142.591H81.2816V131.431H87.9416V117.751C87.9416 112.591 89.4116 108.391 92.3516 105.151C95.3516 101.851 99.6716 100.201 105.312 100.201C106.992 100.201 108.852 100.471 110.892 101.011C112.992 101.491 114.822 102.301 116.382 103.441L111.072 112.531C110.472 111.751 109.752 111.241 108.912 111.001C108.132 110.701 107.382 110.551 106.662 110.551C104.862 110.551 103.392 111.151 102.252 112.351C101.112 113.551 100.542 115.471 100.542 118.111V131.431H112.422V142.591H100.542V170.941H87.9416ZM139.986 172.021C135.186 172.021 131.106 171.121 127.746 169.321C124.446 167.521 121.926 165.031 120.186 161.851C118.446 158.671 117.576 155.011 117.576 150.871C117.576 146.911 118.596 143.341 120.636 140.161C122.676 136.981 125.406 134.461 128.826 132.601C132.246 130.681 136.056 129.721 140.256 129.721C145.896 129.721 150.516 131.371 154.116 134.671C157.776 137.911 160.146 142.621 161.226 148.801L130.626 158.521L127.836 151.681L149.976 144.211L147.366 145.381C146.886 143.821 146.016 142.471 144.756 141.331C143.556 140.131 141.726 139.531 139.266 139.531C137.406 139.531 135.756 139.981 134.316 140.881C132.936 141.721 131.856 142.951 131.076 144.571C130.356 146.131 129.996 147.991 129.996 150.151C129.996 152.611 130.446 154.681 131.346 156.361C132.246 157.981 133.476 159.211 135.036 160.051C136.596 160.891 138.336 161.311 140.256 161.311C141.636 161.311 142.956 161.071 144.216 160.591C145.536 160.111 146.826 159.481 148.086 158.701L153.666 168.061C151.566 169.261 149.286 170.221 146.826 170.941C144.426 171.661 142.146 172.021 139.986 172.021Z"/>
</mask>
<path d="M2.99922 71.9414H-0.000780582V74.9414H2.99922V71.9414ZM2.99922 3.0014V0.00140333H-0.000780582V3.0014H2.99922ZM3.08922 3.0014L5.54094 1.27252L4.64459 0.00140333H3.08922V3.0014ZM39.8992 55.2014L39.2384 58.1277L46.8449 59.8453L42.3509 53.4725L39.8992 55.2014ZM34.3192 53.9414L31.8856 52.1871L29.2321 55.8682L33.6584 56.8677L34.3192 53.9414ZM71.0392 3.0014V0.00140333H69.5036L68.6056 1.24713L71.0392 3.0014ZM71.2192 3.0014H74.2192V0.00140333H71.2192V3.0014ZM71.2192 71.9414V74.9414H74.2192V71.9414H71.2192ZM58.1692 71.9414H55.1692V74.9414H58.1692V71.9414ZM58.1692 32.4314L61.1479 32.074L55.1692 32.4314H58.1692ZM58.9792 39.1814L61.433 40.9074L62.0949 39.9663L61.9578 38.824L58.9792 39.1814ZM36.5692 71.0414V74.0414H38.1269L39.023 72.7674L36.5692 71.0414ZM36.3892 71.0414L33.9583 72.7994L34.8565 74.0414H36.3892V71.0414ZM13.3492 39.1814L10.5286 38.1595L9.98767 39.6525L10.9183 40.9394L13.3492 39.1814ZM15.5992 32.9714H18.5992L12.7786 31.9495L15.5992 32.9714ZM15.5992 71.9414V74.9414H18.5992V71.9414H15.5992ZM2.99922 71.9414H5.99922V3.0014H2.99922H-0.000780582V71.9414H2.99922ZM2.99922 3.0014V6.0014H3.08922V3.0014V0.00140333H2.99922V3.0014ZM3.08922 3.0014L0.637496 4.73029L37.4475 56.9303L39.8992 55.2014L42.3509 53.4725L5.54094 1.27252L3.08922 3.0014ZM39.8992 55.2014L40.56 52.2751L34.98 51.0151L34.3192 53.9414L33.6584 56.8677L39.2384 58.1277L39.8992 55.2014ZM34.3192 53.9414L36.7528 55.6957L73.4728 4.75568L71.0392 3.0014L68.6056 1.24713L31.8856 52.1871L34.3192 53.9414ZM71.0392 3.0014V6.0014H71.2192V3.0014V0.00140333H71.0392V3.0014ZM71.2192 3.0014H68.2192V71.9414H71.2192H74.2192V3.0014H71.2192ZM71.2192 71.9414V68.9414H58.1692V71.9414V74.9414H71.2192V71.9414ZM58.1692 71.9414H61.1692V32.4314H58.1692H55.1692V71.9414H58.1692ZM58.1692 32.4314L55.1906 32.7888L56.0006 39.5388L58.9792 39.1814L61.9578 38.824L61.1479 32.074L58.1692 32.4314ZM58.9792 39.1814L56.5254 37.4554L34.1154 69.3154L36.5692 71.0414L39.023 72.7674L61.433 40.9074L58.9792 39.1814ZM36.5692 71.0414V68.0414H36.3892V71.0414V74.0414H36.5692V71.0414ZM36.3892 71.0414L38.8202 69.2834L15.7802 37.4234L13.3492 39.1814L10.9183 40.9394L33.9583 72.7994L36.3892 71.0414ZM13.3492 39.1814L16.1698 40.2034L18.4198 33.9934L15.5992 32.9714L12.7786 31.9495L10.5286 38.1595L13.3492 39.1814ZM15.5992 32.9714H12.5992V71.9414H15.5992H18.5992V32.9714H15.5992ZM15.5992 71.9414V68.9414H2.99922V71.9414V74.9414H15.5992V71.9414ZM89.421 90.8414L86.685 89.6108L84.7822 93.8414H89.421V90.8414ZM115.611 32.6114V29.6114H113.671L112.875 31.3808L115.611 32.6114ZM126.951 32.6114L129.701 33.8101L131.531 29.6114H126.951V32.6114ZM101.571 90.8414V93.8414H103.536L104.321 92.0401L101.571 90.8414ZM99.951 72.1214L97.2544 73.436L98.7392 76.4819L101.583 74.6389L99.951 72.1214ZM80.691 32.6114V29.6114H75.8911L77.9944 33.9259L80.691 32.6114ZM94.821 32.6114L97.5597 31.3868L96.7658 29.6114H94.821V32.6114ZM109.671 65.8214L111.303 68.3389L113.458 66.9417L112.41 64.5968L109.671 65.8214ZM89.421 90.8414L92.157 92.072L118.347 33.842L115.611 32.6114L112.875 31.3808L86.685 89.6108L89.421 90.8414ZM115.611 32.6114V35.6114H126.951V32.6114V29.6114H115.611V32.6114ZM126.951 32.6114L124.201 31.4127L98.8209 89.6427L101.571 90.8414L104.321 92.0401L129.701 33.8101L126.951 32.6114ZM101.571 90.8414V87.8414H89.421V90.8414V93.8414H101.571V90.8414ZM99.951 72.1214L102.648 70.8069L83.3877 31.2969L80.691 32.6114L77.9944 33.9259L97.2544 73.436L99.951 72.1214ZM80.691 32.6114V35.6114H94.821V32.6114V29.6114H80.691V32.6114ZM94.821 32.6114L92.0823 33.836L106.932 67.046L109.671 65.8214L112.41 64.5968L97.5597 31.3868L94.821 32.6114ZM109.671 65.8214L108.039 63.3039L98.3193 69.604L99.951 72.1214L101.583 74.6389L111.303 68.3389L109.671 65.8214ZM2.99922 104.701V101.701H-0.000780582V104.701H2.99922ZM16.0492 104.701H19.0492V101.701H16.0492V104.701ZM16.0492 158.341H13.0492V161.341H16.0492V158.341ZM47.1892 158.341H50.1892V155.341H47.1892V158.341ZM47.1892 170.941V173.941H50.1892V170.941H47.1892ZM2.99922 170.941H-0.000780582V173.941H2.99922V170.941ZM2.99922 104.701V107.701H16.0492V104.701V101.701H2.99922V104.701ZM16.0492 104.701H13.0492V158.341H16.0492H19.0492V104.701H16.0492ZM16.0492 158.341V161.341H47.1892V158.341V155.341H16.0492V158.341ZM47.1892 158.341H44.1892V170.941H47.1892H50.1892V158.341H47.1892ZM47.1892 170.941V167.941H2.99922V170.941V173.941H47.1892V170.941ZM2.99922 170.941H5.99922V104.701H2.99922H-0.000780582V170.941H2.99922ZM58.5855 131.611V128.611H55.5855V131.611H58.5855ZM71.1855 131.611H74.1855V128.611H71.1855V131.611ZM71.1855 170.941V173.941H74.1855V170.941H71.1855ZM58.5855 170.941H55.5855V173.941H58.5855V170.941ZM60.4755 113.071L58.6014 110.729L58.578 110.748L58.5549 110.767L60.4755 113.071ZM69.8355 113.071L67.8669 115.335L67.8907 115.356L67.9149 115.376L69.8355 113.071ZM69.8355 122.251L71.7461 124.564L71.756 124.556L69.8355 122.251ZM60.4755 122.251L58.5549 124.556L58.6066 124.599L58.6602 124.64L60.4755 122.251ZM58.5855 131.611V134.611H71.1855V131.611V128.611H58.5855V131.611ZM71.1855 131.611H68.1855V170.941H71.1855H74.1855V131.611H71.1855ZM71.1855 170.941V167.941H58.5855V170.941V173.941H71.1855V170.941ZM58.5855 170.941H61.5855V131.611H58.5855H55.5855V170.941H58.5855ZM58.3155 117.661H61.3155C61.3155 116.7 61.6338 116.011 62.396 115.376L60.4755 113.071L58.5549 110.767C56.4371 112.532 55.3155 114.903 55.3155 117.661H58.3155ZM60.4755 113.071L62.3496 115.414C63.3979 114.575 64.3428 114.271 65.2455 114.271V111.271V108.271C62.7881 108.271 60.5531 109.167 58.6014 110.729L60.4755 113.071ZM65.2455 111.271V114.271C66.1357 114.271 66.9807 114.565 67.8669 115.335L69.8355 113.071L71.804 110.808C69.9302 109.178 67.7152 108.271 65.2455 108.271V111.271ZM69.8355 113.071L67.9149 115.376C68.6771 116.011 68.9955 116.7 68.9955 117.661H71.9955H74.9955C74.9955 114.903 73.8738 112.532 71.756 110.767L69.8355 113.071ZM71.9955 117.661H68.9955C68.9955 118.623 68.6771 119.312 67.9149 119.947L69.8355 122.251L71.756 124.556C73.8738 122.791 74.9955 120.42 74.9955 117.661H71.9955ZM69.8355 122.251L67.9248 119.939C67.0445 120.666 66.1804 120.961 65.2455 120.961V123.961V126.961C67.6705 126.961 69.8664 126.117 71.7461 124.564L69.8355 122.251ZM65.2455 123.961V120.961C64.3002 120.961 63.3354 120.657 62.2907 119.863L60.4755 122.251L58.6602 124.64C60.6156 126.126 62.8308 126.961 65.2455 126.961V123.961ZM60.4755 122.251L62.396 119.947C61.6338 119.312 61.3155 118.623 61.3155 117.661H58.3155H55.3155C55.3155 120.42 56.4371 122.791 58.5549 124.556L60.4755 122.251ZM87.9416 170.941H84.9416V173.941H87.9416V170.941ZM87.9416 142.591H90.9416V139.591H87.9416V142.591ZM81.2816 142.591H78.2816V145.591H81.2816V142.591ZM81.2816 131.431V128.431H78.2816V131.431H81.2816ZM87.9416 131.431V134.431H90.9416V131.431H87.9416ZM92.3516 105.151L90.1318 103.133L90.13 103.135L92.3516 105.151ZM110.892 101.011L110.124 103.912L110.173 103.925L110.223 103.936L110.892 101.011ZM116.382 103.441L118.972 104.955L120.338 102.617L118.152 101.019L116.382 103.441ZM111.072 112.531L108.694 114.361L111.413 117.895L113.662 114.045L111.072 112.531ZM108.912 111.001L107.835 113.801L107.959 113.849L108.087 113.886L108.912 111.001ZM102.252 112.351L100.077 110.285L102.252 112.351ZM100.542 131.431H97.5416V134.431H100.542V131.431ZM112.422 131.431H115.422V128.431H112.422V131.431ZM112.422 142.591V145.591H115.422V142.591H112.422ZM100.542 142.591V139.591H97.5416V142.591H100.542ZM100.542 170.941V173.941H103.542V170.941H100.542ZM87.9416 170.941H90.9416V142.591H87.9416H84.9416V170.941H87.9416ZM87.9416 142.591V139.591H81.2816V142.591V145.591H87.9416V142.591ZM81.2816 142.591H84.2816V131.431H81.2816H78.2816V142.591H81.2816ZM81.2816 131.431V134.431H87.9416V131.431V128.431H81.2816V131.431ZM87.9416 131.431H90.9416V117.751H87.9416H84.9416V131.431H87.9416ZM87.9416 117.751H90.9416C90.9416 113.195 92.2219 109.759 94.5733 107.167L92.3516 105.151L90.13 103.135C86.6013 107.024 84.9416 111.988 84.9416 117.751H87.9416ZM92.3516 105.151L94.5715 107.169C96.8599 104.652 100.278 103.201 105.312 103.201V100.201V97.2014C99.0654 97.2014 93.8434 99.0506 90.1318 103.133L92.3516 105.151ZM105.312 100.201V103.201C106.676 103.201 108.274 103.422 110.124 103.912L110.892 101.011L111.659 98.1113C109.43 97.5211 107.307 97.2014 105.312 97.2014V100.201ZM110.892 101.011L110.223 103.936C111.971 104.336 113.417 104.99 114.612 105.864L116.382 103.441L118.152 101.019C116.227 99.6124 114.012 98.6472 111.56 98.0868L110.892 101.011ZM116.382 103.441L113.791 101.928L108.481 111.018L111.072 112.531L113.662 114.045L118.972 104.955L116.382 103.441ZM111.072 112.531L113.45 110.702C112.51 109.481 111.27 108.555 109.736 108.117L108.912 111.001L108.087 113.886C108.233 113.928 108.434 114.022 108.694 114.361L111.072 112.531ZM108.912 111.001L109.989 108.201C108.919 107.79 107.804 107.551 106.662 107.551V110.551V113.551C106.959 113.551 107.344 113.613 107.835 113.801L108.912 111.001ZM106.662 110.551V107.551C104.119 107.551 101.836 108.433 100.077 110.285L102.252 112.351L104.427 114.418C104.947 113.869 105.604 113.551 106.662 113.551V110.551ZM102.252 112.351L100.077 110.285C98.1675 112.295 97.5416 115.14 97.5416 118.111H100.542H103.542C103.542 115.803 104.056 114.808 104.427 114.418L102.252 112.351ZM100.542 118.111H97.5416V131.431H100.542H103.542V118.111H100.542ZM100.542 131.431V134.431H112.422V131.431V128.431H100.542V131.431ZM112.422 131.431H109.422V142.591H112.422H115.422V131.431H112.422ZM112.422 142.591V139.591H100.542V142.591V145.591H112.422V142.591ZM100.542 142.591H97.5416V170.941H100.542H103.542V142.591H100.542ZM100.542 170.941V167.941H87.9416V170.941V173.941H100.542V170.941ZM127.746 169.321L126.31 171.955L126.32 171.961L126.33 171.966L127.746 169.321ZM120.186 161.851L117.554 163.291L120.186 161.851ZM128.826 132.601L130.26 135.237L130.277 135.227L130.295 135.217L128.826 132.601ZM154.116 134.671L152.089 136.883L152.108 136.9L152.128 136.918L154.116 134.671ZM161.226 148.801L162.134 151.661L164.633 150.867L164.181 148.285L161.226 148.801ZM130.626 158.521L127.848 159.654L128.895 162.219L131.534 161.381L130.626 158.521ZM127.836 151.681L126.877 148.839L123.853 149.859L125.058 152.814L127.836 151.681ZM149.976 144.211L151.203 146.949L149.017 141.369L149.976 144.211ZM147.366 145.381L144.499 146.264L145.497 149.507L148.593 148.119L147.366 145.381ZM144.756 141.331L142.635 143.453L142.688 143.506L142.744 143.556L144.756 141.331ZM134.316 140.881L135.876 143.444L135.891 143.435L135.906 143.425L134.316 140.881ZM131.076 144.571L128.373 143.27L128.363 143.292L128.352 143.314L131.076 144.571ZM131.346 156.361L128.702 157.778L128.713 157.798L128.724 157.818L131.346 156.361ZM135.036 160.051L133.614 162.693L135.036 160.051ZM144.216 160.591L143.191 157.772L143.17 157.78L143.148 157.788L144.216 160.591ZM148.086 158.701L150.663 157.165L149.101 154.545L146.507 156.151L148.086 158.701ZM153.666 168.061L155.155 170.666L157.808 169.15L156.243 166.525L153.666 168.061ZM146.826 170.941L145.984 168.062L145.974 168.065L145.964 168.068L146.826 170.941ZM139.986 172.021V169.021C135.555 169.021 131.989 168.191 129.163 166.677L127.746 169.321L126.33 171.966C130.224 174.052 134.817 175.021 139.986 175.021V172.021ZM127.746 169.321L129.183 166.688C126.368 165.152 124.272 163.068 122.818 160.411L120.186 161.851L117.554 163.291C119.581 166.995 122.525 169.891 126.31 171.955L127.746 169.321ZM120.186 161.851L122.818 160.411C121.352 157.732 120.576 154.58 120.576 150.871H117.576H114.576C114.576 155.442 115.54 159.611 117.554 163.291L120.186 161.851ZM117.576 150.871H120.576C120.576 147.457 121.447 144.454 123.161 141.781L120.636 140.161L118.111 138.542C115.746 142.229 114.576 146.366 114.576 150.871H117.576ZM120.636 140.161L123.161 141.781C124.92 139.04 127.269 136.863 130.26 135.237L128.826 132.601L127.393 129.966C123.543 132.06 120.432 134.923 118.111 138.542L120.636 140.161ZM128.826 132.601L130.295 135.217C133.235 133.567 136.533 132.721 140.256 132.721V129.721V126.721C135.58 126.721 131.258 127.796 127.358 129.985L128.826 132.601ZM140.256 129.721V132.721C145.27 132.721 149.128 134.168 152.089 136.883L154.116 134.671L156.143 132.46C151.905 128.575 146.523 126.721 140.256 126.721V129.721ZM154.116 134.671L152.128 136.918C155.15 139.593 157.274 143.615 158.271 149.318L161.226 148.801L164.181 148.285C163.018 141.628 160.403 136.23 156.105 132.425L154.116 134.671ZM161.226 148.801L160.318 145.942L129.718 155.662L130.626 158.521L131.534 161.381L162.134 151.661L161.226 148.801ZM130.626 158.521L133.404 157.388L130.614 150.548L127.836 151.681L125.058 152.814L127.848 159.654L130.626 158.521ZM127.836 151.681L128.795 154.524L150.935 147.054L149.976 144.211L149.017 141.369L126.877 148.839L127.836 151.681ZM149.976 144.211L148.749 141.474L146.139 142.644L147.366 145.381L148.593 148.119L151.203 146.949L149.976 144.211ZM147.366 145.381L150.234 144.499C149.588 142.401 148.412 140.594 146.769 139.107L144.756 141.331L142.744 143.556C143.62 144.349 144.184 145.242 144.499 146.264L147.366 145.381ZM144.756 141.331L146.878 139.21C144.904 137.237 142.164 136.531 139.266 136.531V139.531V142.531C141.289 142.531 142.208 143.026 142.635 143.453L144.756 141.331ZM139.266 139.531V136.531C136.9 136.531 134.688 137.111 132.726 138.337L134.316 140.881L135.906 143.425C136.824 142.852 137.913 142.531 139.266 142.531V139.531ZM134.316 140.881L132.756 138.319C130.827 139.493 129.375 141.189 128.373 143.27L131.076 144.571L133.779 145.873C134.337 144.714 135.046 143.949 135.876 143.444L134.316 140.881ZM131.076 144.571L128.352 143.314C127.41 145.356 126.996 147.666 126.996 150.151H129.996H132.996C132.996 148.317 133.303 146.907 133.8 145.829L131.076 144.571ZM129.996 150.151H126.996C126.996 152.966 127.51 155.554 128.702 157.778L131.346 156.361L133.991 154.945C133.382 153.809 132.996 152.257 132.996 150.151H129.996ZM131.346 156.361L128.724 157.818C129.889 159.916 131.525 161.568 133.614 162.693L135.036 160.051L136.459 157.41C135.427 156.855 134.604 156.047 133.969 154.904L131.346 156.361ZM135.036 160.051L133.614 162.693C135.647 163.788 137.882 164.311 140.256 164.311V161.311V158.311C138.79 158.311 137.545 157.995 136.459 157.41L135.036 160.051ZM140.256 161.311V164.311C141.993 164.311 143.675 164.008 145.284 163.395L144.216 160.591L143.148 157.788C142.237 158.135 141.28 158.311 140.256 158.311V161.311ZM144.216 160.591L145.241 163.411C146.765 162.857 148.24 162.135 149.665 161.252L148.086 158.701L146.507 156.151C145.413 156.828 144.307 157.366 143.191 157.772L144.216 160.591ZM148.086 158.701L145.509 160.238L151.089 169.598L153.666 168.061L156.243 166.525L150.663 157.165L148.086 158.701ZM153.666 168.061L152.178 165.457C150.293 166.534 148.232 167.404 145.984 168.062L146.826 170.941L147.669 173.821C150.341 173.039 152.839 171.989 155.155 170.666L153.666 168.061ZM146.826 170.941L145.964 168.068C143.8 168.717 141.812 169.021 139.986 169.021V172.021V175.021C142.481 175.021 145.052 174.606 147.688 173.815L146.826 170.941Z" fill="#352D23" fill-opacity="0.8" mask="url(#path-1-outside-1_1922_5538)"/>
</svg>
