<svg width="261" height="182" viewBox="0 0 261 182" fill="none" xmlns="http://www.w3.org/2000/svg">
<mask id="path-1-outside-1_1922_5567" maskUnits="userSpaceOnUse" x="-0.296875" y="-0.0625" width="262" height="182" fill="black">
<rect fill="white" x="-0.296875" y="-0.0625" width="262" height="182"/>
<path d="M10.2531 71.9375V2.9975H10.3431L47.1531 55.1975L41.5731 53.9375L78.2931 2.9975H78.4731V71.9375H65.4231V32.4275L66.2331 39.1775L43.8231 71.0375H43.6431L20.6031 39.1775L22.8531 32.9675V71.9375H10.2531ZM96.6749 90.8375L122.865 32.6075H134.205L108.825 90.8375H96.6749ZM107.205 72.1175L87.9449 32.6075H102.075L116.925 65.8175L107.205 72.1175ZM20.2431 104.697L39.5931 152.397L32.0331 150.867L49.5831 104.697H65.0631L34.8231 173.998L4.58313 104.697H20.2431ZM74.4527 131.607H87.0527V170.938H74.4527V131.607ZM74.1827 117.657C74.1827 115.797 74.9027 114.267 76.3427 113.067C77.8427 111.867 79.4327 111.267 81.1127 111.267C82.7927 111.267 84.3227 111.867 85.7027 113.067C87.1427 114.267 87.8627 115.797 87.8627 117.657C87.8627 119.517 87.1427 121.047 85.7027 122.247C84.3227 123.387 82.7927 123.957 81.1127 123.957C79.4327 123.957 77.8427 123.387 76.3427 122.247C74.9027 121.047 74.1827 119.517 74.1827 117.657ZM112.809 171.748C109.569 171.748 106.539 171.178 103.719 170.037C100.959 168.897 98.6188 167.307 96.6988 165.267L101.919 158.337C103.839 160.077 105.609 161.337 107.229 162.117C108.909 162.837 110.409 163.197 111.729 163.197C112.749 163.197 113.649 163.107 114.429 162.927C115.269 162.687 115.929 162.357 116.409 161.937C116.889 161.457 117.129 160.857 117.129 160.137C117.129 159.117 116.709 158.307 115.869 157.708C115.089 157.107 114.069 156.627 112.809 156.267C111.549 155.847 110.199 155.427 108.759 155.007C105.159 153.867 102.549 152.217 100.929 150.057C99.3688 147.837 98.5888 145.437 98.5888 142.857C98.5888 140.877 99.0988 138.897 100.119 136.917C101.199 134.877 102.879 133.197 105.159 131.877C107.499 130.497 110.499 129.807 114.159 129.807C117.459 129.807 120.249 130.137 122.529 130.797C124.809 131.457 126.969 132.537 129.009 134.037L124.239 141.417C123.099 140.517 121.809 139.767 120.369 139.167C118.989 138.507 117.699 138.147 116.499 138.087C115.419 138.027 114.489 138.147 113.709 138.447C112.989 138.747 112.419 139.137 111.999 139.617C111.579 140.097 111.369 140.607 111.369 141.147C111.309 142.287 111.729 143.187 112.629 143.847C113.589 144.507 114.789 145.017 116.229 145.377C117.669 145.737 119.079 146.157 120.459 146.637C122.379 147.237 124.029 148.047 125.409 149.067C126.789 150.087 127.839 151.317 128.559 152.757C129.339 154.137 129.729 155.817 129.729 157.797C129.729 160.197 129.099 162.477 127.839 164.637C126.639 166.737 124.779 168.447 122.259 169.767C119.799 171.088 116.649 171.748 112.809 171.748ZM140.283 131.607H152.883V170.938H140.283V131.607ZM140.013 117.657C140.013 115.797 140.733 114.267 142.173 113.067C143.673 111.867 145.263 111.267 146.943 111.267C148.623 111.267 150.153 111.867 151.533 113.067C152.973 114.267 153.693 115.797 153.693 117.657C153.693 119.517 152.973 121.047 151.533 122.247C150.153 123.387 148.623 123.957 146.943 123.957C145.263 123.957 143.673 123.387 142.173 122.247C140.733 121.047 140.013 119.517 140.013 117.657ZM162.799 150.777C162.799 146.757 163.729 143.157 165.589 139.977C167.509 136.797 170.179 134.307 173.599 132.507C177.019 130.647 180.949 129.717 185.389 129.717C189.889 129.717 193.789 130.647 197.089 132.507C200.389 134.307 202.909 136.797 204.649 139.977C206.449 143.157 207.349 146.757 207.349 150.777C207.349 154.797 206.449 158.427 204.649 161.667C202.909 164.847 200.389 167.367 197.089 169.227C193.789 171.087 189.829 172.018 185.209 172.018C180.889 172.018 177.019 171.177 173.599 169.497C170.239 167.817 167.599 165.387 165.679 162.207C163.759 159.027 162.799 155.217 162.799 150.777ZM175.489 150.867C175.489 152.907 175.909 154.767 176.749 156.447C177.589 158.067 178.729 159.357 180.169 160.317C181.609 161.277 183.229 161.757 185.029 161.757C187.009 161.757 188.719 161.277 190.159 160.317C191.599 159.357 192.709 158.067 193.489 156.447C194.269 154.767 194.659 152.907 194.659 150.867C194.659 148.767 194.269 146.907 193.489 145.287C192.709 143.667 191.599 142.377 190.159 141.417C188.719 140.457 187.009 139.977 185.029 139.977C183.229 139.977 181.609 140.457 180.169 141.417C178.729 142.377 177.589 143.667 176.749 145.287C175.909 146.907 175.489 148.767 175.489 150.867ZM228.705 131.607L229.695 138.627L229.515 137.997C230.895 135.537 232.845 133.557 235.365 132.057C237.885 130.497 240.975 129.717 244.635 129.717C248.355 129.717 251.445 130.827 253.905 133.047C256.425 135.207 257.715 138.027 257.775 141.507V170.938H245.175V146.187C245.115 144.447 244.635 143.067 243.735 142.047C242.895 140.967 241.455 140.427 239.415 140.427C237.495 140.427 235.815 141.057 234.375 142.317C232.935 143.577 231.825 145.287 231.045 147.447C230.265 149.607 229.875 152.097 229.875 154.917V170.938H217.275V131.607H228.705Z"/>
</mask>
<path d="M10.2531 71.9375H7.25313V74.9375H10.2531V71.9375ZM10.2531 2.9975V-0.00250292H7.25313V2.9975H10.2531ZM10.3431 2.9975L12.7948 1.26861L11.8985 -0.00250292H10.3431V2.9975ZM47.1531 55.1975L46.4923 58.1238L54.0988 59.8414L49.6048 53.4686L47.1531 55.1975ZM41.5731 53.9375L39.1395 52.1832L36.486 55.8643L40.9123 56.8638L41.5731 53.9375ZM78.2931 2.9975V-0.00250292H76.7575L75.8595 1.24322L78.2931 2.9975ZM78.4731 2.9975H81.4731V-0.00250292H78.4731V2.9975ZM78.4731 71.9375V74.9375H81.4731V71.9375H78.4731ZM65.4231 71.9375H62.4231V74.9375H65.4231V71.9375ZM65.4231 32.4275L68.4018 32.0701L62.4231 32.4275H65.4231ZM66.2331 39.1775L68.6869 40.9035L69.3488 39.9624L69.2118 38.8201L66.2331 39.1775ZM43.8231 71.0375V74.0375H45.3808L46.2769 72.7635L43.8231 71.0375ZM43.6431 71.0375L41.2122 72.7955L42.1104 74.0375H43.6431V71.0375ZM20.6031 39.1775L17.7826 38.1556L17.2416 39.6486L18.1722 40.9355L20.6031 39.1775ZM22.8531 32.9675H25.8531L20.0326 31.9456L22.8531 32.9675ZM22.8531 71.9375V74.9375H25.8531V71.9375H22.8531ZM10.2531 71.9375H13.2531V2.9975H10.2531H7.25313V71.9375H10.2531ZM10.2531 2.9975V5.9975H10.3431V2.9975V-0.00250292H10.2531V2.9975ZM10.3431 2.9975L7.8914 4.72638L44.7014 56.9264L47.1531 55.1975L49.6048 53.4686L12.7948 1.26861L10.3431 2.9975ZM47.1531 55.1975L47.8139 52.2712L42.2339 51.0112L41.5731 53.9375L40.9123 56.8638L46.4923 58.1238L47.1531 55.1975ZM41.5731 53.9375L44.0068 55.6918L80.7268 4.75177L78.2931 2.9975L75.8595 1.24322L39.1395 52.1832L41.5731 53.9375ZM78.2931 2.9975V5.9975H78.4731V2.9975V-0.00250292H78.2931V2.9975ZM78.4731 2.9975H75.4731V71.9375H78.4731H81.4731V2.9975H78.4731ZM78.4731 71.9375V68.9375H65.4231V71.9375V74.9375H78.4731V71.9375ZM65.4231 71.9375H68.4231V32.4275H65.4231H62.4231V71.9375H65.4231ZM65.4231 32.4275L62.4445 32.7849L63.2545 39.5349L66.2331 39.1775L69.2118 38.8201L68.4018 32.0701L65.4231 32.4275ZM66.2331 39.1775L63.7793 37.4515L41.3693 69.3115L43.8231 71.0375L46.2769 72.7635L68.6869 40.9035L66.2331 39.1775ZM43.8231 71.0375V68.0375H43.6431V71.0375V74.0375H43.8231V71.0375ZM43.6431 71.0375L46.0741 69.2795L23.0341 37.4195L20.6031 39.1775L18.1722 40.9355L41.2122 72.7955L43.6431 71.0375ZM20.6031 39.1775L23.4237 40.1994L25.6737 33.9894L22.8531 32.9675L20.0326 31.9456L17.7826 38.1556L20.6031 39.1775ZM22.8531 32.9675H19.8531V71.9375H22.8531H25.8531V32.9675H22.8531ZM22.8531 71.9375V68.9375H10.2531V71.9375V74.9375H22.8531V71.9375ZM96.6749 90.8375L93.9389 89.6069L92.0361 93.8375H96.6749V90.8375ZM122.865 32.6075V29.6075H120.925L120.129 31.3769L122.865 32.6075ZM134.205 32.6075L136.955 33.8062L138.785 29.6075H134.205V32.6075ZM108.825 90.8375V93.8375H110.79L111.575 92.0362L108.825 90.8375ZM107.205 72.1175L104.508 73.432L105.993 76.478L108.837 74.635L107.205 72.1175ZM87.9449 32.6075V29.6075H83.145L85.2483 33.922L87.9449 32.6075ZM102.075 32.6075L104.814 31.3829L104.02 29.6075H102.075V32.6075ZM116.925 65.8175L118.557 68.335L120.712 66.9378L119.664 64.5929L116.925 65.8175ZM96.6749 90.8375L99.4109 92.0681L125.601 33.8381L122.865 32.6075L120.129 31.3769L93.9389 89.6069L96.6749 90.8375ZM122.865 32.6075V35.6075H134.205V32.6075V29.6075H122.865V32.6075ZM134.205 32.6075L131.455 31.4088L106.075 89.6388L108.825 90.8375L111.575 92.0362L136.955 33.8062L134.205 32.6075ZM108.825 90.8375V87.8375H96.6749V90.8375V93.8375H108.825V90.8375ZM107.205 72.1175L109.902 70.803L90.6416 31.293L87.9449 32.6075L85.2483 33.922L104.508 73.432L107.205 72.1175ZM87.9449 32.6075V35.6075H102.075V32.6075V29.6075H87.9449V32.6075ZM102.075 32.6075L99.3363 33.8321L114.186 67.0421L116.925 65.8175L119.664 64.5929L104.814 31.3829L102.075 32.6075ZM116.925 65.8175L115.293 63.3L105.573 69.6L107.205 72.1175L108.837 74.635L118.557 68.335L116.925 65.8175ZM20.2431 104.697L23.0231 103.57L22.2636 101.697H20.2431V104.697ZM39.5931 152.397L38.9981 155.338L44.4728 156.446L42.3731 151.27L39.5931 152.397ZM32.0331 150.867L29.2289 149.802L27.9726 153.107L31.438 153.808L32.0331 150.867ZM49.5831 104.697V101.697H47.5141L46.7789 103.632L49.5831 104.697ZM65.0631 104.697L67.8128 105.897L69.6454 101.697H65.0631V104.697ZM34.8231 173.997L32.0735 175.197L34.8231 181.499L37.5727 175.197L34.8231 173.997ZM4.58313 104.697V101.697H0.000852466L1.83351 105.897L4.58313 104.697ZM20.2431 104.697L17.4632 105.825L36.8132 153.525L39.5931 152.397L42.3731 151.27L23.0231 103.57L20.2431 104.697ZM39.5931 152.397L40.1882 149.457L32.6282 147.927L32.0331 150.867L31.438 153.808L38.9981 155.338L39.5931 152.397ZM32.0331 150.867L34.8374 151.933L52.3874 105.763L49.5831 104.697L46.7789 103.632L29.2289 149.802L32.0331 150.867ZM49.5831 104.697V107.697H65.0631V104.697V101.697H49.5831V104.697ZM65.0631 104.697L62.3135 103.498L32.0735 172.798L34.8231 173.997L37.5727 175.197L67.8128 105.897L65.0631 104.697ZM34.8231 173.997L37.5727 172.798L7.33274 103.498L4.58313 104.697L1.83351 105.897L32.0735 175.197L34.8231 173.997ZM4.58313 104.697V107.697H20.2431V104.697V101.697H4.58313V104.697ZM74.4527 131.607V128.607H71.4527V131.607H74.4527ZM87.0527 131.607H90.0527V128.607H87.0527V131.607ZM87.0527 170.938V173.938H90.0527V170.938H87.0527ZM74.4527 170.938H71.4527V173.938H74.4527V170.938ZM76.3427 113.067L74.4686 110.725L74.4451 110.744L74.4221 110.763L76.3427 113.067ZM85.7027 113.067L83.7341 115.331L83.7579 115.352L83.7821 115.372L85.7027 113.067ZM85.7027 122.247L87.6133 124.56L87.6232 124.552L85.7027 122.247ZM76.3427 122.247L74.4221 124.552L74.4738 124.595L74.5274 124.636L76.3427 122.247ZM74.4527 131.607V134.607H87.0527V131.607V128.607H74.4527V131.607ZM87.0527 131.607H84.0527V170.938H87.0527H90.0527V131.607H87.0527ZM87.0527 170.938V167.938H74.4527V170.938V173.938H87.0527V170.938ZM74.4527 170.938H77.4527V131.607H74.4527H71.4527V170.938H74.4527ZM74.1827 117.658H77.1827C77.1827 116.696 77.501 116.007 78.2632 115.372L76.3427 113.067L74.4221 110.763C72.3043 112.528 71.1827 114.899 71.1827 117.658H74.1827ZM76.3427 113.067L78.2167 115.41C79.2651 114.571 80.21 114.267 81.1127 114.267V111.267V108.267C78.6553 108.267 76.4202 109.164 74.4686 110.725L76.3427 113.067ZM81.1127 111.267V114.267C82.0029 114.267 82.8479 114.561 83.7341 115.331L85.7027 113.067L87.6712 110.804C85.7974 109.174 83.5824 108.267 81.1127 108.267V111.267ZM85.7027 113.067L83.7821 115.372C84.5443 116.007 84.8627 116.696 84.8627 117.658H87.8627H90.8627C90.8627 114.899 89.741 112.528 87.6232 110.763L85.7027 113.067ZM87.8627 117.658H84.8627C84.8627 118.619 84.5443 119.308 83.7821 119.943L85.7027 122.247L87.6232 124.552C89.741 122.787 90.8627 120.416 90.8627 117.658H87.8627ZM85.7027 122.247L83.792 119.935C82.9117 120.662 82.0476 120.957 81.1127 120.957V123.957V126.957C83.5377 126.957 85.7336 126.113 87.6133 124.56L85.7027 122.247ZM81.1127 123.957V120.957C80.1674 120.957 79.2026 120.653 78.1579 119.859L76.3427 122.247L74.5274 124.636C76.4828 126.122 78.698 126.957 81.1127 126.957V123.957ZM76.3427 122.247L78.2632 119.943C77.501 119.308 77.1827 118.619 77.1827 117.658H74.1827H71.1827C71.1827 120.416 72.3043 122.787 74.4221 124.552L76.3427 122.247ZM103.719 170.038L102.574 172.81L102.584 172.815L102.594 172.819L103.719 170.038ZM96.6988 165.268L94.3026 163.463L92.7812 165.482L94.5142 167.324L96.6988 165.268ZM101.919 158.337L103.933 156.115L101.499 153.908L99.5226 156.533L101.919 158.337ZM107.229 162.117L105.927 164.821L105.987 164.849L106.047 164.875L107.229 162.117ZM114.429 162.928L115.103 165.851L115.179 165.833L115.253 165.812L114.429 162.928ZM116.409 161.938L118.384 164.195L118.46 164.129L118.53 164.059L116.409 161.938ZM115.869 157.708L114.04 160.085L114.082 160.118L114.125 160.149L115.869 157.708ZM112.809 156.268L111.86 159.114L111.922 159.134L111.985 159.152L112.809 156.268ZM108.759 155.008L107.853 157.868L107.886 157.878L107.919 157.887L108.759 155.008ZM100.929 150.057L98.4743 151.782L98.501 151.82L98.5288 151.857L100.929 150.057ZM100.119 136.917L97.4675 135.514L97.4596 135.529L97.4519 135.544L100.119 136.917ZM105.159 131.878L106.662 134.474L106.672 134.468L106.683 134.462L105.159 131.878ZM122.529 130.798L121.695 133.679L122.529 130.798ZM129.009 134.037L131.528 135.666L133.062 133.294L130.786 131.621L129.009 134.037ZM124.239 141.417L122.38 143.772L124.968 145.816L126.758 143.046L124.239 141.417ZM120.369 139.167L119.074 141.874L119.144 141.907L119.215 141.937L120.369 139.167ZM116.499 138.087L116.332 141.083L116.341 141.083L116.349 141.084L116.499 138.087ZM113.709 138.447L112.632 135.647L112.593 135.662L112.555 135.678L113.709 138.447ZM111.999 139.617L109.741 137.642H109.741L111.999 139.617ZM111.369 141.147L114.365 141.305L114.369 141.226V141.147H111.369ZM112.629 143.848L110.855 146.267L110.892 146.294L110.929 146.32L112.629 143.848ZM116.229 145.378L115.501 148.288L116.229 145.378ZM120.459 146.637L119.473 149.471L119.518 149.487L119.564 149.501L120.459 146.637ZM125.409 149.068L123.626 151.48L125.409 149.068ZM128.559 152.757L125.876 154.099L125.91 154.167L125.947 154.234L128.559 152.757ZM127.839 164.637L125.247 163.126L125.241 163.137L125.234 163.149L127.839 164.637ZM122.259 169.768L120.867 167.11L120.854 167.117L120.84 167.124L122.259 169.768ZM112.809 171.747V168.747C109.929 168.747 107.283 168.243 104.843 167.256L103.719 170.038L102.594 172.819C105.795 174.112 109.209 174.747 112.809 174.747V171.747ZM103.719 170.038L104.864 167.265C102.471 166.276 100.493 164.921 98.8834 163.211L96.6988 165.268L94.5142 167.324C96.7449 169.694 99.4466 171.519 102.574 172.81L103.719 170.038ZM96.6988 165.268L99.0951 167.072L104.315 160.142L101.919 158.337L99.5226 156.533L94.3026 163.463L96.6988 165.268ZM101.919 158.337L99.9043 160.56C101.952 162.416 103.961 163.874 105.927 164.821L107.229 162.117L108.53 159.414C107.256 158.801 105.725 157.739 103.933 156.115L101.919 158.337ZM107.229 162.117L106.047 164.875C107.966 165.697 109.878 166.197 111.729 166.197V163.197V160.197C110.939 160.197 109.851 159.978 108.411 159.36L107.229 162.117ZM111.729 163.197V166.197C112.917 166.197 114.052 166.093 115.103 165.851L114.429 162.928L113.754 160.004C113.246 160.122 112.58 160.197 111.729 160.197V163.197ZM114.429 162.928L115.253 165.812C116.37 165.493 117.472 164.993 118.384 164.195L116.409 161.938L114.433 159.68C114.385 159.722 114.168 159.882 113.605 160.043L114.429 162.928ZM116.409 161.938L118.53 164.059C119.61 162.979 120.129 161.6 120.129 160.137H117.129H114.129C114.129 160.159 114.126 160.106 114.163 160.013C114.202 159.917 114.255 159.849 114.288 159.816L116.409 161.938ZM117.129 160.137H120.129C120.129 158.135 119.23 156.421 117.613 155.266L115.869 157.708L114.125 160.149C114.171 160.182 114.186 160.199 114.183 160.196C114.182 160.194 114.177 160.189 114.171 160.18C114.165 160.171 114.157 160.159 114.151 160.146C114.144 160.133 114.138 160.12 114.134 160.108C114.129 160.096 114.127 160.087 114.126 160.083C114.125 160.079 114.126 160.08 114.127 160.089C114.128 160.097 114.129 160.113 114.129 160.137H117.129ZM115.869 157.708L117.698 155.33C116.537 154.436 115.143 153.814 113.633 153.383L112.809 156.268L111.985 159.152C112.995 159.441 113.641 159.779 114.04 160.085L115.869 157.708ZM112.809 156.268L113.758 153.421C112.457 152.988 111.071 152.557 109.599 152.128L108.759 155.008L107.919 157.887C109.327 158.298 110.64 158.707 111.86 159.114L112.809 156.268ZM108.759 155.008L109.665 152.147C106.43 151.123 104.45 149.753 103.329 148.257L100.929 150.057L98.5288 151.857C100.647 154.682 103.887 156.612 107.853 157.868L108.759 155.008ZM100.929 150.057L103.383 148.333C102.159 146.59 101.589 144.787 101.589 142.857H98.5888H95.5888C95.5888 146.088 96.5788 149.085 98.4743 151.782L100.929 150.057ZM98.5888 142.857H101.589C101.589 141.412 101.957 139.9 102.786 138.291L100.119 136.917L97.4519 135.544C96.2407 137.895 95.5888 140.343 95.5888 142.857H98.5888ZM100.119 136.917L102.77 138.321C103.551 136.846 104.798 135.553 106.662 134.474L105.159 131.878L103.656 129.281C100.959 130.842 98.8465 132.909 97.4675 135.514L100.119 136.917ZM105.159 131.878L106.683 134.462C108.428 133.433 110.855 132.807 114.159 132.807V129.807V126.807C110.142 126.807 106.57 127.562 103.635 129.293L105.159 131.878ZM114.159 129.807V132.807C117.278 132.807 119.768 133.122 121.695 133.679L122.529 130.798L123.363 127.916C120.729 127.153 117.64 126.807 114.159 126.807V129.807ZM122.529 130.798L121.695 133.679C123.613 134.235 125.457 135.15 127.232 136.454L129.009 134.037L130.786 131.621C128.481 129.925 126.004 128.68 123.363 127.916L122.529 130.798ZM129.009 134.037L126.489 132.409L121.719 139.789L124.239 141.417L126.758 143.046L131.528 135.666L129.009 134.037ZM124.239 141.417L126.098 139.063C124.727 137.981 123.197 137.096 121.523 136.398L120.369 139.167L119.215 141.937C120.421 142.439 121.47 143.054 122.38 143.772L124.239 141.417ZM120.369 139.167L121.663 136.461C120.019 135.675 118.338 135.176 116.649 135.091L116.499 138.087L116.349 141.084C117.06 141.119 117.959 141.34 119.074 141.874L120.369 139.167ZM116.499 138.087L116.665 135.092C115.281 135.015 113.906 135.157 112.632 135.647L113.709 138.447L114.786 141.248C115.071 141.138 115.556 141.04 116.332 141.083L116.499 138.087ZM113.709 138.447L112.555 135.678C111.504 136.116 110.523 136.748 109.741 137.642L111.999 139.617L114.257 141.593C114.314 141.527 114.474 141.379 114.863 141.217L113.709 138.447ZM111.999 139.617L109.741 137.642C108.934 138.564 108.369 139.753 108.369 141.147H111.369H114.369C114.369 141.278 114.341 141.403 114.3 141.502C114.262 141.595 114.23 141.623 114.257 141.593L111.999 139.617ZM111.369 141.147L108.373 140.99C108.261 143.112 109.117 144.992 110.855 146.267L112.629 143.848L114.403 141.428C114.377 141.409 114.359 141.394 114.349 141.384C114.343 141.379 114.34 141.376 114.337 141.373C114.335 141.371 114.334 141.37 114.334 141.37C114.334 141.37 114.335 141.371 114.336 141.373C114.338 141.375 114.34 141.378 114.342 141.381C114.347 141.389 114.353 141.399 114.357 141.409C114.368 141.432 114.37 141.444 114.368 141.436C114.367 141.427 114.36 141.386 114.365 141.305L111.369 141.147ZM112.629 143.848L110.929 146.32C112.253 147.23 113.805 147.864 115.501 148.288L116.229 145.378L116.956 142.467C115.773 142.171 114.925 141.785 114.328 141.375L112.629 143.848ZM116.229 145.378L115.501 148.288C116.856 148.626 118.179 149.021 119.473 149.471L120.459 146.637L121.444 143.804C119.978 143.294 118.482 142.848 116.956 142.467L116.229 145.378ZM120.459 146.637L119.564 149.501C121.219 150.018 122.556 150.69 123.626 151.48L125.409 149.068L127.192 146.655C125.501 145.405 123.539 144.457 121.354 143.774L120.459 146.637ZM125.409 149.068L123.626 151.48C124.651 152.238 125.381 153.11 125.876 154.099L128.559 152.757L131.242 151.416C130.297 149.525 128.927 147.937 127.192 146.655L125.409 149.068ZM128.559 152.757L125.947 154.234C126.417 155.064 126.729 156.208 126.729 157.798H129.729H132.729C132.729 155.427 132.261 153.211 131.171 151.281L128.559 152.757ZM129.729 157.798H126.729C126.729 159.644 126.252 161.405 125.247 163.126L127.839 164.637L130.43 166.149C131.946 163.55 132.729 160.751 132.729 157.798H129.729ZM127.839 164.637L125.234 163.149C124.365 164.669 122.97 166.008 120.867 167.11L122.259 169.768L123.651 172.425C126.588 170.887 128.912 168.806 130.444 166.126L127.839 164.637ZM122.259 169.768L120.84 167.124C118.949 168.139 116.33 168.747 112.809 168.747V171.747V174.747C116.967 174.747 120.648 174.036 123.677 172.411L122.259 169.768ZM140.283 131.607V128.607H137.283V131.607H140.283ZM152.883 131.607H155.883V128.607H152.883V131.607ZM152.883 170.938V173.938H155.883V170.938H152.883ZM140.283 170.938H137.283V173.938H140.283V170.938ZM142.173 113.067L140.299 110.725L140.275 110.744L140.252 110.763L142.173 113.067ZM151.533 113.067L149.564 115.331L149.588 115.352L149.612 115.372L151.533 113.067ZM151.533 122.247L153.443 124.56L153.453 124.552L151.533 122.247ZM142.173 122.247L140.252 124.552L140.304 124.595L140.357 124.636L142.173 122.247ZM140.283 131.607V134.607H152.883V131.607V128.607H140.283V131.607ZM152.883 131.607H149.883V170.938H152.883H155.883V131.607H152.883ZM152.883 170.938V167.938H140.283V170.938V173.938H152.883V170.938ZM140.283 170.938H143.283V131.607H140.283H137.283V170.938H140.283ZM140.013 117.658H143.013C143.013 116.696 143.331 116.007 144.093 115.372L142.173 113.067L140.252 110.763C138.134 112.528 137.013 114.899 137.013 117.658H140.013ZM142.173 113.067L144.047 115.41C145.095 114.571 146.04 114.267 146.943 114.267V111.267V108.267C144.485 108.267 142.25 109.164 140.299 110.725L142.173 113.067ZM146.943 111.267V114.267C147.833 114.267 148.678 114.561 149.564 115.331L151.533 113.067L153.501 110.804C151.628 109.174 149.412 108.267 146.943 108.267V111.267ZM151.533 113.067L149.612 115.372C150.374 116.007 150.693 116.696 150.693 117.658H153.693H156.693C156.693 114.899 155.571 112.528 153.453 110.763L151.533 113.067ZM153.693 117.658H150.693C150.693 118.619 150.374 119.308 149.612 119.943L151.533 122.247L153.453 124.552C155.571 122.787 156.693 120.416 156.693 117.658H153.693ZM151.533 122.247L149.622 119.935C148.742 120.662 147.878 120.957 146.943 120.957V123.957V126.957C149.368 126.957 151.564 126.113 153.443 124.56L151.533 122.247ZM146.943 123.957V120.957C145.997 120.957 145.033 120.653 143.988 119.859L142.173 122.247L140.357 124.636C142.313 126.122 144.528 126.957 146.943 126.957V123.957ZM142.173 122.247L144.093 119.943C143.331 119.308 143.013 118.619 143.013 117.658H140.013H137.013C137.013 120.416 138.134 122.787 140.252 124.552L142.173 122.247ZM165.589 139.977L163.021 138.427L163.01 138.445L162.999 138.463L165.589 139.977ZM173.599 132.507L174.996 135.162L175.014 135.153L175.032 135.143L173.599 132.507ZM197.089 132.507L195.616 135.121L195.634 135.131L195.652 135.141L197.089 132.507ZM204.649 139.977L202.017 141.418L202.027 141.436L202.038 141.455L204.649 139.977ZM204.649 161.667L202.026 160.211L202.022 160.219L202.017 160.227L204.649 161.667ZM197.089 169.227L195.616 166.614L197.089 169.227ZM173.599 169.497L172.257 172.181L172.267 172.186L172.276 172.19L173.599 169.497ZM165.679 162.208L163.111 163.758L165.679 162.208ZM176.749 156.447L174.066 157.789L174.075 157.809L174.086 157.828L176.749 156.447ZM180.169 160.318L178.505 162.814L180.169 160.318ZM190.159 160.318L188.495 157.821L190.159 160.318ZM193.489 156.447L196.192 157.749L196.201 157.73L196.21 157.711L193.489 156.447ZM193.489 145.287L190.786 146.589L193.489 145.287ZM190.159 141.417L188.495 143.914L190.159 141.417ZM180.169 141.417L178.505 138.921V138.921L180.169 141.417ZM176.749 145.287L174.086 143.907L176.749 145.287ZM162.799 150.777H165.799C165.799 147.24 166.611 144.171 168.178 141.492L165.589 139.977L162.999 138.463C160.846 142.144 159.799 146.275 159.799 150.777H162.799ZM165.589 139.977L168.157 141.528C169.783 138.835 172.039 136.718 174.996 135.162L173.599 132.507L172.202 129.853C168.319 131.896 165.235 134.76 163.021 138.427L165.589 139.977ZM173.599 132.507L175.032 135.143C177.954 133.554 181.378 132.717 185.389 132.717V129.717V126.717C180.519 126.717 176.084 127.741 172.166 129.872L173.599 132.507ZM185.389 129.717V132.717C189.47 132.717 192.843 133.558 195.616 135.121L197.089 132.507L198.562 129.894C194.735 127.737 190.308 126.717 185.389 126.717V129.717ZM197.089 132.507L195.652 135.141C198.468 136.677 200.564 138.761 202.017 141.418L204.649 139.977L207.281 138.537C205.254 134.834 202.31 131.938 198.525 129.874L197.089 132.507ZM204.649 139.977L202.038 141.455C203.558 144.14 204.349 147.222 204.349 150.777H207.349H210.349C210.349 146.293 209.34 142.175 207.26 138.5L204.649 139.977ZM207.349 150.777H204.349C204.349 154.332 203.558 157.453 202.026 160.211L204.649 161.667L207.271 163.124C209.34 159.402 210.349 155.263 210.349 150.777H207.349ZM204.649 161.667L202.017 160.227C200.559 162.893 198.451 165.016 195.616 166.614L197.089 169.227L198.562 171.841C202.327 169.719 205.259 166.802 207.281 163.108L204.649 161.667ZM197.089 169.227L195.616 166.614C192.854 168.171 189.425 169.018 185.209 169.018V172.018V175.018C190.232 175.018 194.723 174.004 198.562 171.841L197.089 169.227ZM185.209 172.018V169.018C181.286 169.018 177.878 168.257 174.922 166.805L173.599 169.497L172.276 172.19C176.16 174.098 180.492 175.018 185.209 175.018V172.018ZM173.599 169.497L174.941 166.814C172.082 165.385 169.87 163.345 168.247 160.657L165.679 162.208L163.111 163.758C165.328 167.43 168.396 170.25 172.257 172.181L173.599 169.497ZM165.679 162.208L168.247 160.657C166.66 158.029 165.799 154.778 165.799 150.777H162.799H159.799C159.799 155.657 160.857 160.026 163.111 163.758L165.679 162.208ZM175.489 150.867H172.489C172.489 153.332 173 155.658 174.066 157.789L176.749 156.447L179.432 155.106C178.818 153.878 178.489 152.483 178.489 150.867H175.489ZM176.749 156.447L174.086 157.828C175.146 159.873 176.62 161.557 178.505 162.814L180.169 160.318L181.833 157.821C180.838 157.158 180.032 156.262 179.412 155.067L176.749 156.447ZM180.169 160.318L178.505 162.814C180.458 164.116 182.662 164.757 185.029 164.757V161.757V158.757C183.796 158.757 182.76 158.439 181.833 157.821L180.169 160.318ZM185.029 161.757V164.757C187.513 164.757 189.822 164.148 191.823 162.814L190.159 160.318L188.495 157.821C187.616 158.407 186.505 158.757 185.029 158.757V161.757ZM190.159 160.318L191.823 162.814C193.728 161.544 195.188 159.833 196.192 157.749L193.489 156.447L190.786 155.146C190.229 156.302 189.47 157.171 188.495 157.821L190.159 160.318ZM193.489 156.447L196.21 157.711C197.192 155.596 197.659 153.299 197.659 150.867H194.659H191.659C191.659 152.516 191.346 153.939 190.768 155.184L193.489 156.447ZM194.659 150.867H197.659C197.659 148.392 197.198 146.075 196.192 143.986L193.489 145.287L190.786 146.589C191.34 147.74 191.659 149.143 191.659 150.867H194.659ZM193.489 145.287L196.192 143.986C195.188 141.902 193.728 140.191 191.823 138.921L190.159 141.417L188.495 143.914C189.47 144.564 190.229 145.433 190.786 146.589L193.489 145.287ZM190.159 141.417L191.823 138.921C189.822 137.587 187.513 136.977 185.029 136.977V139.977V142.977C186.505 142.977 187.616 143.328 188.495 143.914L190.159 141.417ZM185.029 139.977V136.977C182.662 136.977 180.458 137.619 178.505 138.921L180.169 141.417L181.833 143.914C182.76 143.296 183.796 142.977 185.029 142.977V139.977ZM180.169 141.417L178.505 138.921C176.62 140.178 175.146 141.862 174.086 143.907L176.749 145.287L179.412 146.668C180.032 145.473 180.838 144.577 181.833 143.914L180.169 141.417ZM176.749 145.287L174.086 143.907C172.993 146.014 172.489 148.36 172.489 150.867H175.489H178.489C178.489 149.175 178.825 147.801 179.412 146.668L176.749 145.287ZM228.705 131.607L231.676 131.189L231.312 128.607H228.705V131.607ZM229.695 138.628L226.81 139.452L232.666 138.209L229.695 138.628ZM229.515 137.997L226.898 136.53L226.287 137.62L226.63 138.822L229.515 137.997ZM235.365 132.057L236.899 134.635L236.922 134.622L236.944 134.608L235.365 132.057ZM253.905 133.048L251.895 135.275L251.923 135.3L251.953 135.325L253.905 133.048ZM257.775 141.507H260.775V141.482L260.774 141.456L257.775 141.507ZM257.775 170.938V173.938H260.775V170.938H257.775ZM245.175 170.938H242.175V173.938H245.175V170.938ZM245.175 146.188H248.175V146.136L248.173 146.084L245.175 146.188ZM243.735 142.048L241.367 143.889L241.424 143.963L241.485 144.032L243.735 142.048ZM234.375 142.318L236.35 144.575L234.375 142.318ZM231.045 147.447L233.867 148.466L231.045 147.447ZM229.875 170.938V173.938H232.875V170.938H229.875ZM217.275 170.938H214.275V173.938H217.275V170.938ZM217.275 131.607V128.607H214.275V131.607H217.275ZM228.705 131.607L225.734 132.026L226.724 139.046L229.695 138.628L232.666 138.209L231.676 131.189L228.705 131.607ZM229.695 138.628L232.579 137.803L232.399 137.173L229.515 137.997L226.63 138.822L226.81 139.452L229.695 138.628ZM229.515 137.997L232.131 139.465C233.244 137.482 234.812 135.878 236.899 134.635L235.365 132.057L233.83 129.48C230.877 131.237 228.546 133.593 226.898 136.53L229.515 137.997ZM235.365 132.057L236.944 134.608C238.89 133.404 241.402 132.717 244.635 132.717V129.717V126.717C240.548 126.717 236.88 127.591 233.786 129.507L235.365 132.057ZM244.635 129.717V132.717C247.71 132.717 250.055 133.614 251.895 135.275L253.905 133.048L255.915 130.82C252.835 128.041 249 126.717 244.635 126.717V129.717ZM253.905 133.048L251.953 135.325C253.786 136.897 254.729 138.889 254.775 141.559L257.775 141.507L260.774 141.456C260.701 137.166 259.064 133.518 255.857 130.77L253.905 133.048ZM257.775 141.507H254.775V170.938H257.775H260.775V141.507H257.775ZM257.775 170.938V167.938H245.175V170.938V173.938H257.775V170.938ZM245.175 170.938H248.175V146.188H245.175H242.175V170.938H245.175ZM245.175 146.188L248.173 146.084C248.096 143.847 247.461 141.736 245.984 140.063L243.735 142.048L241.485 144.032C241.809 144.399 242.134 145.048 242.177 146.291L245.175 146.188ZM243.735 142.048L246.103 140.206C244.458 138.091 241.911 137.428 239.415 137.428V140.428V143.428C240.998 143.428 241.332 143.844 241.367 143.889L243.735 142.048ZM239.415 140.428V137.428C236.771 137.428 234.388 138.319 232.399 140.06L234.375 142.318L236.35 144.575C237.241 143.796 238.219 143.428 239.415 143.428V140.428ZM234.375 142.318L232.399 140.06C230.507 141.715 229.141 143.886 228.223 146.429L231.045 147.447L233.867 148.466C234.508 146.689 235.363 145.44 236.35 144.575L234.375 142.318ZM231.045 147.447L228.223 146.429C227.302 148.98 226.875 151.827 226.875 154.917H229.875H232.875C232.875 152.368 233.228 150.235 233.867 148.466L231.045 147.447ZM229.875 154.917H226.875V170.938H229.875H232.875V154.917H229.875ZM229.875 170.938V167.938H217.275V170.938V173.938H229.875V170.938ZM217.275 170.938H220.275V131.607H217.275H214.275V170.938H217.275ZM217.275 131.607V134.607H228.705V131.607V128.607H217.275V131.607Z" fill="#FFFBF5" fill-opacity="0.8" mask="url(#path-1-outside-1_1922_5567)"/>
</svg>
