<?xml version="1.0" encoding="UTF-8"?>
<svg id="_レイヤー_1" data-name="レイヤー 1" xmlns="http://www.w3.org/2000/svg" viewBox="0 0 20.05 16.59">
  <defs>
    <style>
      .cls-1 {
        fill: none;
        stroke: #dc6810;
        stroke-miterlimit: 10;
      }

      .cls-2 {
        fill: #ff8d40;
      }
    </style>
  </defs>
  <ellipse class="cls-1" cx="8.57" cy="8.3" rx="8.02" ry="7.72"/>
  <path class="cls-2" d="M19.72,10.77c-.3-.51-.77-.86-1.42-1.07-.48-.15-.96-.18-1.42-.09-.37.07-.69.23-.99.43-.02-.02-.03-.05-.05-.07-.29-.28-.69-.41-1.18-.41-.33,0-.64.09-.94.28-.28.18-.52.41-.73.7-.06-.22-.15-.4-.28-.53-.14-.15-.32-.26-.53-.33-.21-.08-.45-.11-.72-.11-.42,0-.78.09-1.07.28-.29.18-.53.44-.73.76v-.06c.01-.3.09-.68.33-.98h-1.9v5.22h1.6v-2.06c0-.29.04-.57.13-.84.09-.27.22-.5.39-.68.17-.18.38-.27.63-.27.22.01.37.09.44.23.07.14.11.32.12.54v3.07h1.6v-2.04c0-.3.04-.58.13-.86.09-.28.22-.5.4-.68.18-.18.4-.27.66-.27.22.01.36.09.42.23.06.14.1.32.1.54v3.07h1.59v-.41c.14.06.27.13.43.19.25.08.53.12.83.13.31,0,.6-.02.89-.08v-1.4c-.09.07-.3.13-.3.13-.17.04-.34.07-.51.08-.17,0-.33-.01-.49-.06-.22-.07-.41-.18-.56-.33-.09-.1-.16-.21-.21-.34h3.64c.1-.75,0-1.38-.3-1.89ZM16.35,11.77s0-.06.02-.09c.08-.25.19-.45.34-.6.14-.15.31-.26.51-.31.19-.05.4-.04.61.03.28.09.47.22.57.4.09.17.14.35.14.53l-2.19.04Z"/>
  <ellipse class="cls-2" cx="6.45" cy="5.51" rx=".97" ry=".94"/>
  <ellipse class="cls-2" cx="10.69" cy="5.51" rx=".97" ry=".94"/>
</svg>