<?xml version="1.0" encoding="UTF-8"?>
<svg id="_レイヤー_1" data-name="レイヤー 1" xmlns="http://www.w3.org/2000/svg" viewBox="0 0 20.08 16.14">
  <defs>
    <style>
      .cls-1 {
        stroke-width: .5px;
      }

      .cls-1, .cls-2 {
        fill: none;
        stroke: #dc6810;
        stroke-miterlimit: 10;
      }

      .cls-3 {
        fill: #ff8d40;
      }
    </style>
  </defs>
  <g id="BlogIcon">
    <rect class="cls-2" x=".54" y=".57" width="19" height="15" rx="1" ry="1"/>
    <g>
      <line class="cls-1" x1="18.03" y1="11.14" x2="6.7" y2="11.14"/>
      <line class="cls-1" x1="18.03" y1="12.41" x2="6.7" y2="12.41"/>
      <line class="cls-1" x1="18.03" y1="13.85" x2="6.7" y2="13.85"/>
      <line class="cls-1" x1="18.03" y1="9.85" x2="6.7" y2="9.85"/>
    </g>
    <circle class="cls-3" cx="4.05" cy="2.56" r=".5"/>
    <circle class="cls-3" cx="5.55" cy="2.56" r=".5"/>
    <circle class="cls-3" cx="2.55" cy="2.56" r=".5"/>
    <g>
      <path class="cls-3" d="M2.99,4.7c.31,0,.55.06.73.19.18.12.27.31.27.55,0,.18-.04.33-.13.45-.09.12-.21.21-.36.27-.15.06-.33.09-.53.09l-.09-.31c.24,0,.46.03.65.1.19.07.34.16.45.29s.16.27.16.45c0,.16-.03.3-.09.41-.06.11-.13.2-.23.27s-.21.12-.33.15-.25.05-.38.05h-.98v-2.95h.87ZM3.05,5.91c.11,0,.2-.04.25-.1.05-.07.08-.15.08-.24,0-.1-.03-.18-.1-.23s-.16-.08-.27-.08h-.31v.65h.35ZM3.07,7.11c.09,0,.16-.01.23-.03.07-.02.12-.06.16-.11.04-.05.06-.11.06-.19,0-.09-.02-.15-.07-.19-.05-.04-.11-.08-.19-.09-.08-.02-.16-.03-.24-.03h-.33v.64h.37Z"/>
      <path class="cls-3" d="M4.51,4.73h.58v2.39h1.39v.56h-1.97v-2.95Z"/>
      <path class="cls-3" d="M6.68,6.2c0-.2.04-.39.12-.58s.18-.34.32-.48c.14-.14.3-.25.48-.33.18-.08.38-.12.58-.12s.4.04.58.12c.18.08.34.19.48.33.14.14.25.3.33.48.08.18.12.37.12.58s-.04.4-.12.58c-.08.18-.19.34-.33.48-.14.14-.3.25-.48.32-.18.08-.38.12-.58.12s-.4-.04-.58-.12c-.18-.08-.34-.18-.48-.32-.14-.14-.24-.3-.32-.48-.08-.18-.12-.38-.12-.58ZM7.28,6.2c0,.13.02.25.07.37.05.11.11.21.2.3.08.09.18.15.29.2.11.05.23.07.36.07s.24-.02.35-.07c.11-.05.2-.12.28-.2.08-.09.14-.19.19-.3.05-.11.07-.24.07-.37s-.02-.26-.07-.37c-.05-.11-.11-.22-.19-.3-.08-.09-.18-.15-.29-.2-.11-.05-.23-.07-.36-.07s-.25.02-.36.07c-.11.05-.21.11-.29.2-.08.09-.15.19-.19.3s-.07.24-.07.37Z"/>
      <path class="cls-3" d="M12.46,7.4s-.09.08-.16.11c-.07.04-.16.07-.26.11-.1.03-.2.06-.3.08-.1.02-.2.03-.29.03-.24,0-.46-.04-.65-.11-.19-.07-.36-.17-.49-.3-.14-.13-.24-.28-.31-.45-.07-.17-.11-.36-.11-.57,0-.27.04-.5.12-.7s.19-.36.33-.5c.14-.13.3-.23.48-.29.18-.06.37-.1.57-.1.19,0,.36.02.52.06s.29.09.4.15l-.19.54s-.11-.05-.19-.08-.16-.05-.24-.07c-.08-.02-.16-.03-.22-.03-.16,0-.3.02-.42.06s-.23.1-.31.18c-.08.08-.15.18-.19.3s-.06.26-.06.41c0,.14.02.26.07.37.05.11.12.2.2.28.09.08.19.14.31.18s.25.06.39.06c.08,0,.16,0,.23-.02.07-.01.13-.03.18-.06v-.36h-.51v-.56h1.1v1.25Z"/>
    </g>
  </g>
</svg>