<?xml version="1.0" encoding="UTF-8"?>
<svg id="_レイヤー_1" data-name="レイヤー 1" xmlns="http://www.w3.org/2000/svg" viewBox="0 0 142.07 117.76">
  <defs>
    <style>
      .cls-1 {
        fill: none;
        stroke: #998670;
        stroke-miterlimit: 10;
      }
    </style>
  </defs>
  <polygon id="Australia" class="cls-1" points="116.22 1 117.68 2.46 117.68 10.79 121.88 13.84 123.59 16.07 124.48 29.77 130.34 35.9 131.32 38.12 131.32 41.94 134.78 45.76 135.5 47.57 135.5 51.18 140.38 57.67 141.18 59.53 141.18 67 132.3 84.14 131.59 87.07 124.57 92.4 124.66 95.87 122.26 98.44 117.28 101.55 115.6 108.57 111.6 112.3 105.29 112.66 102 115.59 97.47 115.59 93.83 114.7 90.72 116.65 81.31 115.23 78.29 112.66 78.29 101.91 76.42 97.2 72.33 99.78 68.25 97.38 68.25 92.22 58.48 86.54 38.84 93.56 28.89 99.06 17.88 97.91 7.84 101.37 3.22 101.2 1 98.09 1.44 94 7.22 89.29 7.84 86.18 5.97 83.25 5.97 71.97 3.84 68.06 4.2 64.51 7.4 59.8 7.04 54.11 15.12 40.88 22.94 40.88 27.03 38.12 35.02 36.88 39.29 31.82 42.04 25.15 44.71 23.82 47.37 24.89 47.9 20.89 57.23 12.72 62.56 12.81 65.76 16.8 67.89 15.83 72.33 6.59 78.46 5.43 78.46 2.77 80.86 1.84 84.59 1.92 86.28 3.61 94.9 4.32 96.67 6.9 95.7 9.92 92.23 13.56 92.06 17.47 100.94 25.29 105.38 25.38 107.78 15.6 109.47 6.37 112.49 1.39 116.22 1"/>
</svg>