<?xml version="1.0" encoding="UTF-8"?>
<svg id="_レイヤー_1" data-name="レイヤー 1" xmlns="http://www.w3.org/2000/svg" viewBox="0 0 31.39 30.3">
  <defs>
    <style>
      .cls-1 {
        fill: none;
        stroke: #998670;
        stroke-miterlimit: 10;
      }
    </style>
  </defs>
  <polygon id="Combosia" class="cls-1" points="29.58 2.92 30.33 2.01 29.95 3.77 29.58 4.14 29.58 4.93 29.23 5.3 29.23 6.3 29.67 6.3 29.78 7.62 30.52 8.93 30.77 10.34 30 12.19 30 13.22 30.45 14.38 30.36 16.38 29.48 17.48 28.95 16.82 28.33 17.04 27.51 18.2 26.51 18.54 25.95 18.54 25.6 19.14 23.82 18.98 24.23 19.73 23.82 20.51 24.26 21.08 23.13 20.92 21.66 20.33 21.31 21.26 20.72 20.86 20.47 21.42 21.03 21.83 20.81 23.36 21.28 23.96 22 24.58 22.5 24.58 22.69 25.05 22.28 25.46 22.69 26.34 21.78 26.34 21.28 25.71 20.94 26.18 20.28 24.93 19.22 25.37 18.32 25.49 17.93 25.93 16.31 25.49 15.9 25.87 16.53 26.87 15.21 28.31 13.65 28.12 13.05 28.84 11.64 27.87 10.36 28.18 9.42 27.34 8.98 28.18 9.23 29.09 8.07 28.34 7.35 27.46 7.79 26.77 8.42 26.77 8.54 26.05 8.2 24.74 7.51 24.11 6.98 26.02 5.73 25.96 6.51 27.18 5.73 27.15 5.07 25.71 5.32 23.74 5.07 22.74 4.13 21.33 4.13 20.42 2.85 17.95 2.85 16.57 3.28 16.35 1.66 14.57 1.66 12.5 .69 10.78 .97 9.03 2.28 8.96 2.16 8.27 3 7.81 4 6.21 4.41 4.89 5.6 4.36 6.88 4.17 8.42 3.58 8.83 4.17 11.02 4.11 12.08 3.71 13.4 4.17 13.68 3.74 14.99 3.61 15.73 3.99 16.15 4.89 16.81 4.68 16.99 3.99 17.9 5.61 19.06 5.43 20.31 5.93 20.81 6.62 22.13 6.93 22.47 5.99 21.38 3.99 22.6 4.21 22.94 3.36 23.85 3.58 24.41 2.55 25.2 3.64 25.79 3.64 26.13 4.17 26.98 4.33 27.57 3.49 27.98 3.92 28.98 2.67 29.58 2.92"/>
</svg>