<?xml version="1.0" encoding="UTF-8"?>
<svg id="_レイヤー_1" data-name="レイヤー 1" xmlns="http://www.w3.org/2000/svg" viewBox="0 0 22.22 29.15">
  <defs>
    <style>
      .cls-1 {
        fill: none;
        stroke: #998670;
        stroke-miterlimit: 10;
      }
    </style>
  </defs>
  <polygon id="Germany" class="cls-1" points="17.97 1.45 18.63 2.38 18.94 3.07 17.82 3.35 18.38 3.73 18.94 3.54 19.95 4.24 19.95 4.63 18.88 4.63 20.18 5.21 20.41 7.14 20.41 7.84 19.83 7.84 19.83 8.77 20.92 9.43 20.65 10.13 20.76 10.48 21.19 11.41 20.8 12.22 21.19 12.96 21.03 13.31 21.61 13.58 21.61 14.51 21.27 15.9 20.68 15.24 19.99 15.2 20.3 15.75 19.06 16.33 18.55 16.33 17.82 16.99 16.81 17.37 15.84 17.37 15.65 18.3 15.41 18.65 16.11 19.12 15.68 19.74 16.54 21.17 17.16 21.17 18.13 22.53 19.02 22.88 18.9 23.77 18.17 23.61 18.09 24.58 16.58 25.12 17.31 26.21 17.2 27.26 16.73 27.26 16.34 26.56 15.41 26.71 15.41 27.26 14.02 27.26 12.97 27.76 12.27 27.22 11.38 27.18 11.38 27.76 10.69 28.19 10.69 27.41 9.91 27.1 9.31 27.24 8.36 26.67 7.74 26.78 7.24 26.25 6.75 26.67 7.26 26.71 7.26 27.06 6.24 27.02 5.16 27.13 4.79 26.6 5.05 25.83 4.94 25.36 5.4 24.24 5.51 23.44 6.26 22.36 4.94 21.96 4.47 21.52 4.07 22.14 3.2 21.49 2.77 21.38 2.04 20.47 2.58 19.42 1.64 18.84 1.64 17.75 2.15 17.64 1.79 16.91 1.64 16.19 1.1 16.01 1.53 15.64 1.01 15.23 1.7 14.69 1.46 14.45 1.84 13.97 1.83 13.32 1.17 12.44 1.62 11.95 2.21 12.25 3.19 11.93 2.93 11.49 3.26 11.16 3.72 10.75 3.71 10.02 3.02 9.99 2.98 9.32 3.77 9.32 4.05 8.02 4.21 6.67 3.68 6.67 3.68 5.99 4.36 5.39 5 5.01 4.83 5.39 5.93 5.18 6.26 5.79 6.05 6.18 6.44 6.45 6.63 6.12 6.49 5.69 7.2 5.91 6.93 5.27 7.31 4.6 7.85 4.83 8.73 4.64 7.66 4.02 8.11 3.07 7.18 3.19 7.33 2.6 8.2 2.41 7.23 .69 8.61 .93 9.39 .93 10.25 1.05 10.65 1.81 10.06 2.33 10.92 2.33 12.03 3.07 12.78 2.64 12.91 3.4 12.15 3.78 12.56 4.38 13.22 4.02 14.17 3.59 15.08 3.48 16.1 2.22 17.1 2.41 17.97 1.45"/>
</svg>