<?xml version="1.0" encoding="UTF-8"?>
<svg id="_レイヤー_1" data-name="レイヤー 1" xmlns="http://www.w3.org/2000/svg" viewBox="0 0 181.37 69.56">
  <defs>
    <style>
      .cls-1 {
        fill: none;
        stroke: #998670;
        stroke-miterlimit: 10;
      }
    </style>
  </defs>
  <g id="Indonesia">
    <polygon class="cls-1" points="80.18 58.35 83 58.92 84.06 57.71 86.41 59.73 86.08 61.11 84.62 61.11 83.9 62.48 82.76 61.03 81.22 60.54 80.18 58.35"/>
    <polygon class="cls-1" points="87.77 61.57 89.05 60.1 92.1 58.52 96.94 61.57 87.77 61.57"/>
    <polygon class="cls-1" points="98.84 60.1 101.01 59.15 105.59 60.04 109.15 59.62 115.51 59.62 108.51 62.48 98.84 61.95 98.84 60.1"/>
    <polygon class="cls-1" points="95.66 63.86 99.99 63.86 103.43 66.02 101.13 68.57 98.84 65.64 95.66 65.64 95.66 63.86"/>
    <polygon class="cls-1" points="112.33 67.04 113.6 64.5 120.22 60.82 127.73 60.04 126.58 61.57 120.73 63.86 117.29 67.04 112.33 67.04"/>
    <polygon class="cls-1" points="41.2 54.19 45.15 49.86 54.31 51.39 55.96 53.05 63.34 54.19 64.36 52.03 67.29 54.19 72.63 54.19 72.63 57.71 75.94 58.52 78.99 57.71 80.18 61.57 72 60.1 65.38 60.82 59.15 57.71 53.16 58.52 46.93 55.72 41.2 54.19"/>
    <polygon class="cls-1" points="1.34 4.52 7.12 7.13 10.47 7.13 15.5 13.46 27.05 19.8 35.07 25.39 35.07 28.93 39.91 31.54 39.17 34.11 43.26 37.5 43.26 48.68 38.05 49.86 23.89 37.31 17.36 27.19 11.4 18.12 9.17 13.28 6 12.53 1.34 4.52"/>
    <polygon class="cls-1" points="57.61 18.68 63.2 21.29 65.25 16.82 71.96 14.58 75.31 9.36 81.65 6.75 86.41 .98 89.85 .98 96.94 6.94 94.13 9.55 90.03 11.13 90.22 14.77 95.66 22.22 94.51 23.9 90.22 23.9 89.85 29.11 86.41 32.28 86.91 35.64 85.19 39.92 79.04 42.72 76.25 39.92 71.77 40.11 67.67 41.04 65.25 39.18 60.69 39.73 59.48 31.91 56.68 29.67 55.75 25.76 57.61 18.68"/>
    <polygon class="cls-1" points="100.47 23.34 103.43 21.1 115.51 23.34 120.03 20.17 121.71 21.85 117.42 25.95 111.09 25.95 103.43 25.95 101.76 25.41 100.47 27.45 100.47 29.34 103.28 32.18 104.81 30.65 112.53 28.9 113.91 29.99 113.26 31.01 111.09 30.94 107.36 34.11 105.32 34.11 109.03 38.36 109.4 41.13 110.71 43.46 112.75 44.55 110.42 48.33 108.74 46.95 107 46.88 105.69 45.79 105.98 43.53 103.72 40.91 103.94 37.71 101.17 39.02 102.05 40.33 101.46 41.57 101.97 44.26 101.03 46.73 102.19 49.06 98.04 49.86 96.94 48.41 98.04 44.99 97.53 42.72 95.06 40.4 96.59 36.47 96.59 31.89 98.84 30.14 98.99 26.57 100.47 23.34"/>
    <polygon class="cls-1" points="129.08 18.34 133.92 16.6 133.92 22.55 132.06 23.54 134.53 26.39 131.07 25.77 133.67 31.72 128.59 28.37 127.73 23.54 129.08 18.34"/>
    <polygon class="cls-1" points="123.14 39.52 127.01 39.52 128.2 41.12 125.67 42.72 123.14 39.52"/>
    <polygon class="cls-1" points="131.13 38.52 136.31 37.44 141.18 38.52 143.55 41.98 142.26 43.93 140.31 43.5 138.8 41.55 133.39 41.12 131.66 41.66 131.13 38.52"/>
    <polygon class="cls-1" points="141.28 30.74 147.45 27.93 155.13 30.31 155.77 34.11 155.77 36.58 158.15 39.52 161.07 39.52 162.26 35.82 168.86 32.36 180.65 36.58 180.65 61.57 177.08 58.52 173.29 60.04 167.78 59.61 168.21 57.12 171.99 54.2 167.78 46.53 157.72 43.93 152.53 41.12 149.72 42.72 146.47 37.44 153.61 36.9 153.18 35.02 151.02 35.82 146.37 35.02 144.2 33.23 141.28 30.74"/>
    <polygon class="cls-1" points="156.65 47.78 158.6 54.45 154.53 54.45 156.65 47.78"/>
    <polygon class="cls-1" points="145.97 54.45 142.63 56.78 141.28 59.61 142.33 60.82 145.97 54.45"/>
  </g>
</svg>