<?xml version="1.0" encoding="UTF-8"?>
<svg id="_レイヤー_1" data-name="レイヤー 1" xmlns="http://www.w3.org/2000/svg" viewBox="0 0 36.93 43.41">
  <defs>
    <style>
      .cls-1 {
        fill: none;
        stroke: #998670;
        stroke-miterlimit: 10;
      }
    </style>
  </defs>
  <polygon id="Italy" class="cls-1" points="14.39 1.59 16.11 1.59 17.08 .87 17.67 .87 17.84 1.59 17.62 2.01 18.55 3.1 20.82 3.1 22.12 3.48 21.58 4.36 21.79 5.33 21.83 7.01 20.9 7.01 19.18 8.31 18.27 8.31 17.71 8.69 18.26 9.44 18.1 10.11 18.68 10.65 17.81 11.1 18 12.19 18.38 12.48 18.34 13.4 19.42 14.53 20.13 14.65 20.42 14.73 20.37 15.04 21.69 15.78 22.21 16.61 22.62 17.58 22.92 18.11 23.04 18.8 23.56 20.01 24.66 21.27 26.09 22.48 29.32 22.48 29.62 22.86 29.56 23.34 28.75 23.88 28.72 24.16 29.26 24.73 32.85 26.46 33.53 26.95 34.28 27.17 36.32 29.19 36.32 29.9 36.13 30.51 36.11 30.96 35.84 31.16 35.51 30.79 35.04 30.75 34.78 30.27 34.81 29.72 34.24 29.3 33.27 29.29 32.46 28.85 32.46 28.46 31.79 28.49 30.81 29.84 30.71 31.05 30.33 31.16 30.65 31.55 31.54 31.82 32.35 32.6 32.32 33.3 32.67 33.65 32.52 34.52 31.18 34.52 30.69 35.12 30.71 36.6 30.09 36.66 29.28 38.19 28.13 38.19 27.75 37.64 27.69 37.13 27.18 38.04 27.1 38.81 26.82 39.14 26.51 39.21 26.59 39.61 26.27 39.77 26.27 39.91 26.62 40.07 26.48 40.68 26.94 40.89 26.85 41.6 26.53 41.85 26.56 42.79 25.1 42.79 24.98 42.55 24.21 42.52 24.22 42 23.16 41.19 22.3 41.22 20.18 39.79 18.8 39.65 18.74 39.15 18.53 38.9 18.55 37.6 19.83 37.55 20.93 36.87 21.17 36.87 21.66 37.64 21.97 37.8 22.64 37.61 24.55 37.54 24.88 37.03 26.71 37.06 27.21 36.45 27.6 36.47 27.92 36.71 28.16 36.42 28.34 35.97 28.58 35.82 28.29 35.47 28.42 35.17 29.2 34.97 29.47 34.54 29.06 33.95 29.06 33.43 28.79 33.22 28.78 32.59 28.43 32.38 28.23 32 28.29 31.26 28.02 30.6 27.71 30.36 27.39 30.36 27.31 29.98 26.32 30.01 25.35 29.29 25.7 28.97 25.5 28.37 25.49 28.02 24.18 27.96 23.89 27.28 23.19 27.2 22.26 25.88 21.34 25.57 20.15 25.39 18.94 24.64 15.79 21.27 15.35 21.08 13.33 18.93 13.07 18.47 12.56 18.32 12.56 17.28 12.06 16.73 11.62 14.5 8.42 12.87 7.17 12.75 6.79 13.07 5.29 14.77 4.21 15.21 3.7 15.07 3.7 14.41 4.24 13.74 4.06 13.5 2.99 13.71 1.63 12.78 1.63 11.86 2.13 11.29 1 9.58 1.12 9.35 2.45 8.64 2.4 8.24 2.03 7.56 1.48 7.2 1.51 6.38 2.18 6.08 4.85 6.06 5.41 5.34 5.45 4.8 5.21 4.56 6.22 3.82 6.61 4.31 6.6 4.75 7.68 5.72 7.94 6.28 8.94 3.88 9.39 3.48 9.69 3.67 9.74 4.44 9.89 4.51 10.69 3.95 11.29 4.78 11.24 4.36 10.97 3.58 11.14 2.96 12.41 3.5 12.26 1.98 12.5 1.9 13.96 2.37 14.39 1.59"/>
</svg>