<?xml version="1.0" encoding="UTF-8"?>
<svg id="_レイヤー_1" data-name="レイヤー 1" xmlns="http://www.w3.org/2000/svg" viewBox="0 0 59.16 63.41">
  <defs>
    <style>
      .cls-1 {
        fill: none;
        stroke: #998670;
        stroke-miterlimit: 10;
      }
    </style>
  </defs>
  <g id="Japan">
    <polygon class="cls-1" points="44.92 .78 46.05 1.59 47.75 3.77 52.04 5.71 54.06 7.57 56.49 5.39 57.38 5.23 57.38 6.12 57.06 7.57 56.9 8.79 57.38 9.55 58.3 10.7 58.3 11.08 56.73 11.71 53.34 12.39 52.78 13.15 51.61 15.7 50.96 15.7 45.49 12.6 44.48 13.54 43.37 13.45 43.37 12.82 42.15 12.82 41.64 12.56 41.64 14.51 42.36 14.85 44.05 14.81 44.39 15.4 44.26 15.99 43.71 16.46 41.93 16.08 41.3 17.35 39.6 17.35 39.43 16.33 39.94 15.61 38.25 12.99 39.14 12.1 39.94 11.67 40.45 11.67 40.45 10.82 39.9 10.23 40.24 9.06 40.75 8.75 42.53 9.64 43.08 9.42 43.76 7.22 43.76 4.93 44.43 1.92 44.35 1.07 44.92 .78"/>
    <polygon class="cls-1" points="44.07 17.35 45.84 17.66 46.35 18.68 45.95 20.16 46.35 21.07 47.71 22.21 48.27 24.43 47.6 26.25 47.2 27.55 47.77 28.86 46.97 31.02 44.98 30.28 44.98 31.85 45.84 33.92 45.1 35.51 45.15 36.42 44.58 38.36 45.32 39.84 45.84 40.69 44.07 42 42.42 43.7 41.51 43.19 42.71 41.48 42.42 40.06 41.51 41.88 40.55 42.34 38.61 45.01 37.48 42.68 36.68 44.55 34.63 44.21 33.1 44.61 31.45 43.65 31.22 42.91 30.54 43.08 30.09 44.04 31.73 45.58 30.09 45.98 28.83 47.11 27.64 48.31 26.5 48.31 24.85 46.37 24.85 45.52 25.54 43.65 25.14 42.91 21.84 42.51 18.94 43.08 16.5 44.1 14.79 43.25 13.99 44.04 13.71 45.52 9.62 43.02 10.58 41.71 14.62 39.89 16.55 38.19 18.54 38.19 19.23 38.98 21.61 38.53 25.03 38.81 26.22 39.21 27.36 38.58 27.24 36.71 27.98 35.23 29.63 34.78 29.52 33.07 30.6 32.16 32.47 31.85 32.81 32.44 32.19 33.47 31.73 34.21 31.73 35.06 32.81 35.4 34.12 35.06 36.06 32.83 37.76 32.1 39.52 28.81 40.38 27.38 40.6 25.51 39.98 24.54 40.6 23.8 39.75 21.87 40.55 20.28 41.06 20.45 41.12 19.2 42.03 18.23 42.77 20.79 43.62 19.65 44.76 20.79 44.76 18.97 43.39 18.12 44.07 17.35"/>
    <polygon class="cls-1" points="18.59 45.84 19.46 44.11 20.62 44.11 21.94 44.52 23.64 46.42 21.82 49.52 20.58 48.31 18.84 48.82 17.44 51.14 15.2 49.65 14.96 47.62 13.3 47.33 16.03 45.47 17.19 45.02 18.59 45.84"/>
    <polygon class="cls-1" points="3.96 46.42 5.16 45.43 9.04 44.11 10.12 45.26 11.9 46.05 11.44 47.62 13.3 48.74 13.3 50.23 12.23 51.14 12.23 54.11 9.87 55.68 8.38 55.68 10.03 54.11 8.63 53.2 7.97 53.91 7.97 55.02 6.64 54.57 6.44 52.5 8.34 50.52 7.39 49.69 8.09 48.94 7.55 47.62 6.64 47.62 6.56 49.11 4.54 48.86 3.96 48.08 3.96 46.42"/>
    <polygon class="cls-1" points="4.24 59.25 4.79 59.86 4.24 60.67 3.31 61.17 2.82 61.72 2.6 62.39 1.77 62.78 1.16 62.57 1 62.07 1.57 61.68 1.55 61.02 2.38 60.71 2.42 60.1 3.25 60.14 4.24 59.25"/>
  </g>
</svg>