<?xml version="1.0" encoding="UTF-8"?>
<svg id="_レイヤー_1" data-name="レイヤー 1" xmlns="http://www.w3.org/2000/svg" viewBox="0 0 69.56 24.07">
  <defs>
    <style>
      .cls-1 {
        fill: none;
        stroke: #998670;
        stroke-miterlimit: 10;
      }
    </style>
  </defs>
  <g id="Malaysia">
    <polygon class="cls-1" points="9.21 2.61 10.52 2.9 11.15 4.19 12.3 5.16 13.67 5.97 15.08 8.16 15.31 10.39 14.9 10.8 15.31 11.47 14.67 12.32 15.31 13.17 15.31 15.44 15.75 16.25 16.72 16.55 16.72 17.29 17.42 18.26 18.72 20.56 18.57 21.56 17.68 21.15 17.57 20.56 17.2 21.15 16.16 21.04 15.34 21.75 14.71 20.74 8.77 17.59 8.18 17.44 7.99 16.63 6.99 16.7 6.25 15.96 5.47 15.85 5.99 15.14 5.69 14.06 4.73 13.03 3.69 12.18 3.21 11.36 3.47 10.98 2.84 10.84 2.69 10.13 2.69 9.05 2.69 8.09 1.98 7.79 1.83 7.12 1.83 5.08 1.65 3.45 .68 2.34 1.05 .78 1.87 1.04 2.17 1.82 3.13 1.97 3.8 1.67 4.1 2.08 4.06 2.67 4.99 2.63 5.21 3.23 5.36 3.86 4.84 4.49 5.36 4.97 5.88 4.45 7.22 4.01 7.66 4.49 8.51 4.41 8.33 3.49 9.11 3.19 9.21 2.61"/>
    <polygon class="cls-1" points="61.07 3.55 61.68 3.55 61.99 4.47 62.5 4.83 63.16 4.83 63.67 5.49 63.16 6.27 63.26 6.97 64.34 6.56 65 7.33 66.17 7.33 67.65 8.35 68.88 8.35 68.88 9.42 66.89 10.18 65.76 10.18 64.97 10.18 65.36 11 66.83 11.66 66.38 12.12 63.26 12.63 62.09 12.63 61.63 12.07 59.08 12.12 58.37 11.87 57.6 12.33 56.99 12.07 56.12 12.63 56.12 13.5 56.12 14.88 55.61 15.59 56.02 16.1 55.31 16.51 54.69 16.51 54.24 17.12 54.85 17.99 53.37 18.65 53.37 19.32 53.01 20.03 52.3 21.41 51.74 21.05 50.87 21.41 50 21.2 49.19 22.17 48.42 21.76 46.58 21.41 46.58 20.64 46.02 21.15 44.65 21 44.03 21.51 43.62 22.17 43.01 22.17 42.71 22.78 40.95 22.78 40.57 22.36 38.25 23.38 36.87 22.23 36.1 22.03 36.1 21.52 35.5 21.52 34.79 20.5 34.39 19.81 35.08 19.26 35.14 19.73 35.56 19.99 36.03 20.28 37.09 20.37 37.25 19.99 38.13 20.26 38.11 20.7 39.55 20.97 39.6 20.55 40.06 20.28 40.06 19.68 40.37 19.22 40.13 18.35 40.37 18 41.3 18.24 41.06 17.33 42.17 16.62 46.58 15.76 48.11 13.74 50.12 11.95 49.98 11.08 51.1 11.22 52.44 12.9 53.07 12.58 52.73 10.81 53.85 10.23 54.1 11.64 54.99 11.96 54.73 10.95 54.21 10.14 55.46 10.08 55.6 9.56 54.97 8.87 55.53 8.06 56.96 8.11 57.5 6.68 57.77 5.83 58.37 5.85 58.37 5.51 59.04 5.27 59.04 4.73 59.51 4.48 59.94 3.37 60.41 3.61 60.18 4.73 60.5 4.75 60.9 4.15 61.07 3.55"/>
  </g>
</svg>