<?xml version="1.0" encoding="UTF-8"?>
<svg id="_レイヤー_1" data-name="レイヤー 1" xmlns="http://www.w3.org/2000/svg" viewBox="0 0 39.99 57.31">
  <defs>
    <style>
      .cls-1 {
        fill: none;
        stroke: #998670;
        stroke-miterlimit: 10;
      }
    </style>
  </defs>
  <g id="Philippines">
    <polygon class="cls-1" points="17.06 .75 20.75 2.65 21.48 1.4 22.22 2.42 21.6 3.33 21.54 5.54 22.73 7.08 21.83 10.14 18.91 12.36 18.52 14.53 19.77 17.25 19.9 19.19 21.49 20.45 22.73 18.8 23.73 18.71 24.89 19.69 24.89 21.03 25.92 21.03 25.92 19.73 28.6 21.03 27.04 21.39 27.93 23.09 27.89 23.9 28.78 23.9 29.59 24.17 29.19 26.09 28.2 25.19 25.83 23.81 25.56 22.38 24.08 21.7 24.17 21.03 22.92 20.59 22.92 21.48 23.73 23 23.1 23.45 21.44 21.21 19.77 20.23 18.53 21.48 16.79 21.35 16.39 20.36 15.49 20.63 15.49 19.02 16.7 18.17 16.57 17.01 15.09 16.56 15.4 17.99 14.33 18.21 13.84 16.74 13.08 16.56 12.63 14.5 12.18 11.77 12.18 9.98 13.61 11.77 14.51 10.96 13.97 9.44 14.37 8.28 14.6 5.86 14.01 5.1 15.31 2.46 15.13 1.25 15.81 1.74 16.25 .94 17.06 .75"/>
    <polygon class="cls-1" points="28.91 31.51 28.91 34.84 27.82 35.68 27.12 37.02 26.18 38.76 26.62 36.13 27.54 34.59 28.91 31.51"/>
    <polygon class="cls-1" points="29.17 35.99 30.08 35.86 30.63 36.21 31.18 36.03 31.18 37.21 30.17 37.76 30.17 38.28 28.62 38.09 27.88 38.28 28.17 37.67 27.88 37.28 29.17 36.41 29.17 35.99"/>
    <polygon class="cls-1" points="13.6 22.1 17.73 22.62 19.08 23.45 19.08 26.09 17.5 27.87 13.6 22.1"/>
    <polygon class="cls-1" points="20.42 28.55 23.25 30.28 25.32 30.05 25.32 31.92 20.88 34.64 21.11 29.66 20.42 28.55"/>
    <polygon class="cls-1" points="29.89 26.09 33.04 26.09 34.69 27.42 34.69 30.19 35.96 32.21 33.19 31.31 32.93 33.26 33.67 34.94 33.26 35.69 32.66 36.44 31.84 35.86 31.91 33.63 31.5 32.51 30.49 33 30.19 31.27 29.59 29.93 31.46 31.27 32.77 29.21 30.64 27.87 29.89 26.09"/>
    <polygon class="cls-1" points="26.18 25.8 29.53 28.55 28.91 29.57 26.66 27.42 25.32 28.55 26.18 25.8"/>
    <polygon class="cls-1" points="25.61 32.31 26.85 32.93 25.32 37.96 26.08 39.5 24.99 40.3 24.11 38.97 23.27 38.76 22.26 37.43 22.87 36.44 24.02 36.1 24.02 34.43 24.82 32.93 25.61 32.31"/>
    <polygon class="cls-1" points="34.46 37.07 35.96 38.28 38.14 41.05 37.22 42.04 38.14 42.4 38.14 44.49 39.25 46.88 37.53 48.66 37.47 51.12 35.96 47.19 34.46 49.83 35.57 52.16 34.46 54.55 33.72 53.76 33.72 52.53 32.5 53.45 28.91 51.73 28.39 49.09 29.53 47.8 28.91 45.81 26.85 45.29 26.48 47.07 24.15 47.44 23.85 45.81 22.56 45.81 21.64 49.03 20.42 48.73 21.45 44.98 23.6 43.88 24.55 43.94 24.55 42.96 25.75 42.47 26.48 41.67 27.88 42.16 28.14 43.2 28.14 44.25 29.83 43.57 30.23 42.34 31.64 42.59 31.88 40.3 33.11 41.12 33.66 39.95 34.95 40.3 34.28 38.28 34.46 37.07"/>
    <polygon class="cls-1" points="10.86 30.57 10.86 32.68 11.87 34.64 9.3 36.44 7.94 37.07 7.06 38.76 5.84 40.3 3.53 42.11 1.63 43.06 3.73 40.01 5.02 39.39 6.75 37.56 7.8 35.86 9.03 34.64 9.77 34.64 10.18 33.42 9.64 32.61 10.86 30.57"/>
    <polygon class="cls-1" points="12.18 26.61 14.7 28.27 12.64 29.86 12.18 26.61"/>
    <polygon class="cls-1" points="19.77 49.96 21.43 49.96 21.43 50.63 20.6 51.38 19.77 49.96"/>
    <polygon class="cls-1" points="11.87 56.68 13.44 55.19 14.4 56.68 11.87 56.68"/>
    <polygon class="cls-1" points="16.34 52.95 18.66 52.57 16.34 54.97 16.34 52.95"/>
  </g>
</svg>