<?xml version="1.0" encoding="UTF-8"?>
<svg id="_レイヤー_1" data-name="レイヤー 1" xmlns="http://www.w3.org/2000/svg" viewBox="0 0 14.78 25.35">
  <defs>
    <style>
      .cls-1 {
        fill: none;
        stroke: #998670;
        stroke-miterlimit: 10;
      }
    </style>
  </defs>
  <g id="SouthKorea">
    <polygon class="cls-1" points="9.62 .89 10.82 3.19 12.22 4.89 13.37 6.79 13.71 9.03 13.47 10.08 13.42 10.93 13.52 12.03 13.94 11.54 14.15 12.13 13.49 14.79 12.51 16.06 11.78 16.67 11.78 16.08 11.36 16.22 10.57 15.92 11.01 16.67 10.14 16.01 10.35 16.53 9.96 16.57 10.12 17.07 9.93 17.3 9.21 16.88 8.79 17.02 8.43 16.5 8.11 16.6 7.83 16.81 7.33 16.74 7.1 16.9 7.66 17.07 7.38 17.72 7.22 18.31 6.75 17.53 6.61 17.11 6.19 17.37 6.7 18.31 5.95 19.1 5.18 18.56 5.46 17.87 4.5 18.97 3.99 18.77 3.99 19.23 4.06 19.52 3.54 19.34 3.26 19.52 2.89 19.11 2.89 18.83 2.73 18.58 2.6 19.16 1.91 19.25 1.43 18.93 2.16 18.42 1.88 18.08 1.2 18.24 .78 17.34 1.47 17.21 1.18 16.89 1.7 16.61 1.65 16.27 1.29 16.25 2.04 15.49 2.62 15.03 3.1 14.11 2.67 13.86 3.9 13.12 3.32 12.48 3.44 12.08 2.27 11.83 3.19 11.37 2.95 10.47 2.45 10.66 2.15 9.4 1.41 9.3 1.84 8.6 1.84 7.92 2.11 8.26 2.33 7.55 2.64 7.76 3.04 7.3 3.56 7.98 4.15 7.95 3.87 7.49 3.48 7.2 2.79 6.79 3.83 6.79 3.38 5.98 2.87 6.33 2.52 5.93 3.35 5.62 2.37 5.42 1.94 4.44 2.44 4.44 3.05 4.37 3.6 4.62 3.61 3.81 3.99 3.78 5.03 2.46 6.09 2.18 8.72 2.32 9.38 1.61 9.4 1.1 9.62 .89"/>
    <polygon class="cls-1" points="2.46 22.89 3.95 22.49 4.68 22.69 4.91 23.15 4.25 23.95 2.46 24.11 2.26 24.41 1.66 23.65 2.46 22.89"/>
  </g>
</svg>