<?xml version="1.0" encoding="UTF-8"?>
<svg id="_レイヤー_1" data-name="レイヤー 1" xmlns="http://www.w3.org/2000/svg" viewBox="0 0 9.45 15.37">
  <defs>
    <style>
      .cls-1 {
        fill: none;
        stroke: #998670;
        stroke-miterlimit: 10;
      }
    </style>
  </defs>
  <polygon id="Taiwan" class="cls-1" points="6.83 .53 6.91 .71 7.34 1.09 7.86 1.19 7.97 1.58 8.27 1.68 7.86 1.96 7.55 2.37 7.55 2.91 7.75 3.46 7.45 4.08 7.35 4.63 6.96 4.9 7.04 5.12 6.83 5.25 6.83 5.5 6.93 5.67 6.7 5.92 6.4 7.82 6.01 8.88 6.07 9.18 5.85 9.26 5.55 10.01 5.22 10.16 5.33 10.39 4.98 10.85 4.62 10.99 4.13 12.27 4.21 13.45 4.04 13.63 4.04 13.99 3.7 13.61 3.58 13.93 3.39 13.45 3.53 13.11 3.26 12.49 2.95 11.97 2.02 11.37 1.76 10.87 1.53 9.7 .96 9.16 1.21 9.07 1.13 8.7 1.35 8.23 1.48 7.91 1.42 7.05 1.51 6.78 1.54 6.42 1.87 6.42 2.14 5.66 2.51 5.02 3.55 3.29 4.13 2.75 4.35 2.47 4.29 2.23 4.73 1.58 5.46 1.14 5.76 1.19 6.04 1.01 6.07 .81 6.55 .53 6.83 .53"/>
</svg>