<?xml version="1.0" encoding="UTF-8"?>
<svg id="_レイヤー_1" data-name="レイヤー 1" xmlns="http://www.w3.org/2000/svg" viewBox="0 0 47.73 87.16">
  <defs>
    <style>
      .cls-1 {
        fill: none;
        stroke: #998670;
        stroke-miterlimit: 10;
      }
    </style>
  </defs>
  <polygon id="Thaiiland" class="cls-1" points="17.13 .98 17.8 1.91 18.59 2.47 17.68 4.28 17.68 4.96 18.18 6.04 18.83 6.04 19.18 5.69 19.85 6.19 20.35 5.25 21.64 5.54 22.34 5.54 22.7 6.04 22.08 6.6 22.7 8.77 22.29 10.03 22.46 10.71 21.47 11.94 21.49 12.49 21.93 13.17 21.67 14.9 21.08 15.4 20.85 16.45 20.59 16.89 20.73 17.16 21.23 17.36 21.7 17.83 22.55 17.48 22.7 16.92 24.13 15.96 24.54 15.28 27.12 13.49 28.71 14.78 29.5 14.46 30.03 14.75 30.26 15.05 32.61 14.58 32.9 13.61 33.87 13.05 33.66 12.29 34.87 12.17 36.54 12.88 37.01 12.55 37.68 13.05 39.03 15.22 40.53 16.57 42.08 17.83 42.23 18.89 41.76 20.09 41.82 21.7 41.79 23.11 43.08 24.23 43.4 24.75 43.4 25.22 44.75 25.96 45.4 25.96 45.4 26.84 45.92 27.36 46.8 27.36 47.01 27.86 47.01 29.09 46.45 29.45 46.45 29.77 46.8 30.03 46.22 30.53 46.19 31.18 46.8 31.97 46.33 32.73 46.77 34.14 45.95 34.96 44.78 35.16 44.16 36.13 43.72 35.72 43.69 34.9 41.41 34.99 41.2 35.34 40.47 35.37 39.53 35.11 38.97 35.49 36.6 35.49 36.04 34.84 34.46 35.72 32.4 36.43 31.93 36.87 31.82 37.39 31.32 37.6 31.32 38.18 30.59 39.21 29.97 39.56 30.09 40.12 29.82 40.33 29.06 40.33 28.68 40.71 28.8 42.52 29.41 43.38 29.56 45.05 30.94 46.66 30.73 48.3 30.19 48 29.75 48.3 28.64 48.3 28.52 47.94 28.84 47.32 27.96 46.7 27.9 47.18 27.04 46.31 26.31 46.19 25.49 45.13 25.23 45.13 24.85 45.49 20.57 45.45 20.33 45.07 20.65 43.96 21.01 40.83 19.34 40.69 18.78 40.33 17.57 40.75 16.79 40.59 15.16 41.55 15.16 41.98 15.67 42.96 15.16 45.09 15.16 46.76 15.48 47.98 15.32 48.71 14.04 50.69 12.33 54.29 12.33 55.72 10.56 58.77 10.56 62.53 10.7 63.45 11.31 64.19 11 64.98 11.12 65.72 11.61 65.9 12.59 65.68 13.74 65.22 14.34 65.28 14.96 65.78 14.96 68.77 15.36 69.54 16.57 70.46 16.89 71.47 17.21 73.25 17.91 75.4 16.79 73.7 16.19 74.18 16.21 75 16.85 76.23 17.57 76.67 17.59 77.35 18.02 77.81 18.98 77.81 20.19 78.92 21.29 79.34 22.88 79.34 23.16 79.18 24.1 79.24 25.21 80.87 26.19 82.05 27.4 82.76 27.64 83.14 26.63 84.02 26.57 84.91 26.07 85.45 25.45 85.45 24.68 84.56 23.56 85.09 23.08 85.45 22.5 86.43 21.85 86.43 21.19 85.23 21.49 84.87 21.87 84.54 21.59 83.72 22.07 83.12 21.85 82.58 21.15 82.62 20.35 82.56 20.14 81.99 20.08 81.41 19.78 81.19 19.32 81.53 17.49 80.97 17.15 79.94 16.65 79.98 16.41 81.27 13.58 78.68 13.62 77.87 12.69 76.79 11.77 76.35 11.23 74.64 10.56 74.08 10.24 75.1 9.94 74.78 10.1 72.89 8.51 72.47 8.39 72.15 8.31 70.94 7.35 70.26 6.77 70.5 6.24 71.85 6.24 72.41 6.16 73.15 5.94 73.94 5.46 73.15 5.72 71.71 5.78 70.68 5.16 69.88 5.6 68.07 5.54 66 5.84 66.89 6.28 66.26 6.2 65.1 7.49 61.42 8.65 59.39 8.53 57 9.92 56.04 11.23 54.41 12.39 52.46 12.27 51.62 13.37 51.1 13.5 50.55 12.97 49.65 12.25 47.14 12.31 46.03 10.82 44.43 10.36 42.88 11.08 41.94 10.32 37.96 5.84 33.34 5.52 32.29 5.58 30.44 7.55 29.94 7.91 25.76 9.1 25.56 9.5 25.1 9.34 23.86 8.27 24.28 7.11 22.01 7.19 20.78 5.48 19.13 4.21 17.07 3.23 16.52 2.95 15.5 2.95 14.17 2.53 12.59 1.74 12.83 1 11.6 1.72 11.6 3.19 11 3.13 9.89 2.75 8.97 3.63 7.94 3.45 6.34 4.52 5.17 4.98 3.91 5.68 4.57 6.71 4.87 7.89 4.75 9.12 4.07 9.74 4.37 10.02 4.27 10.22 2.64 11.04 2.4 12.37 2.56 13.15 1.84 12.69 .98 13.68 1.34 15.04 .75 15.73 .97 16.19 1.84 17.13 .98"/>
</svg>