<?xml version="1.0" encoding="UTF-8"?>
<svg id="_レイヤー_1" data-name="レイヤー 1" xmlns="http://www.w3.org/2000/svg" viewBox="0 0 64.29 30.18">
  <defs>
    <style>
      .cls-1 {
        fill: none;
        stroke: #998670;
        stroke-miterlimit: 10;
      }
    </style>
  </defs>
  <polygon id="Turkey" class="cls-1" points="8.53 2.48 8.99 4.19 11.84 5.88 12.92 5.88 18.07 6.88 18.77 5.96 24.93 3.19 29.55 3.72 30.16 2.48 30.78 3.8 32.32 4.68 33.63 4.68 34.32 5.26 33.78 6.11 35.24 6.88 36.09 6.27 38.17 7.57 39.09 6.88 41.02 7.96 44.56 6.88 46.25 7.57 49.41 6.19 51.1 4.57 51.8 4.88 53.18 4.65 54.11 5.22 54.65 4.03 56.03 5.22 57.42 5.8 57.88 6.96 58.8 7.96 57.96 8.88 58.34 9.65 58.8 10.58 60.81 10.12 62.5 11.89 61.42 11.89 61.19 13.04 60.19 13.43 60.81 14.35 60.5 15.04 61.19 15.66 61.37 16.76 61.98 17.34 62.22 17.95 61.69 17.95 61.45 18.53 61.42 19.6 61.93 19.6 62.5 20.02 62.8 20.55 62.8 20.87 63.44 21.48 63.58 22.25 63.23 22.73 62.57 22.86 61.9 23.34 61.21 23.05 60.39 22.49 56.78 22.25 55.71 23.34 54.97 23.34 54.63 22.89 53.27 23.53 51.41 23.79 49.45 23.79 47 25.25 44.85 25.76 42.7 25.76 42.17 25.2 40.76 25.04 40.26 25.65 37.12 26.26 36.67 25.63 35.82 25.49 35.61 25.97 35.64 26.63 36.05 27.38 36.05 27.64 35.03 28.09 35 28.76 33.7 29.42 33.17 28.97 33.22 27.99 32.74 27.43 32.74 27.06 34.04 25.84 34.02 25.2 33.59 25.09 32 26.42 31.36 26.61 29.56 25.63 28.49 25.81 27.43 26.79 26.29 27.72 25.12 28.2 24.03 28.17 22.6 28.47 21.38 27.99 20.21 26.5 18.72 25.76 17.37 24.91 15.64 24.75 15.22 24.96 15.24 26.02 14.63 27.17 14.02 27.06 13.65 27.01 12.4 27.51 11.42 27.35 10.3 26.29 10.06 25.63 9.72 25.63 9.72 25.01 9.13 25.23 8.68 24.88 8.26 24.38 7.73 24.43 7.06 25.04 6.56 25.07 6.82 24.11 6.35 24.19 5.36 23.39 5.1 23.21 5.3 22.85 4.46 21.79 3.92 21.59 3.92 20.97 3.58 20.3 3.58 20.07 4.25 19.77 4.23 19.17 3.72 19.19 3.15 18.91 2.86 18.17 2.6 17.86 2.35 18.25 1.67 17.84 1 17.49 1 17.19 1.72 16.96 1.41 15.95 1.49 15.67 1.92 15.69 2.37 16.12 2.58 16.8 3.05 17.09 3.45 16.96 3.11 16.43 2.82 15.86 3.15 15.55 3.86 15.26 3.84 15.08 3.41 14.94 3.35 14.63 3.45 14.06 3.09 13.75 3.7 12.54 3.31 11.97 2.26 12.67 1.26 12.23 1.26 11.1 1.66 10.01 2.7 9.53 3.31 8.84 4.09 8.62 4.53 8.71 5.14 8.49 6.23 8.97 7.45 9.01 8.1 9.27 9.23 9.23 9.54 9.75 9.8 9.23 10.93 9.36 10.58 8.53 11.45 7.92 13.02 8.1 12.54 7.57 11.45 6.88 11.37 6.44 10.37 7.01 8.84 6.31 7.58 6.7 6.75 6.27 5.36 7.7 3.79 8.23 3.66 7.62 1.44 7.53 1.48 6.83 2.48 5.83 2.53 4.74 3.75 4.18 3.4 3.35 2.66 2.48 3.22 2.17 3.75 2.35 3.79 1.69 4.92 1.89 5.27 1.28 6.53 1.45 7.01 2.15 8.53 2.48"/>
</svg>