<?xml version="1.0" encoding="UTF-8"?>
<svg id="_レイヤー_1" data-name="レイヤー 1" xmlns="http://www.w3.org/2000/svg" viewBox="0 0 191.92 105.26">
  <defs>
    <style>
      .cls-1 {
        fill: none;
        stroke: #998670;
        stroke-miterlimit: 10;
      }
    </style>
  </defs>
  <polygon id="USA" class="cls-1" points="29.13 7.08 114.73 5.84 117.02 8.96 124.29 7.4 126.36 8.96 126.36 12.49 122.21 13.94 121.17 16.02 125.33 16.02 130.52 14.15 134.26 14.57 137.58 17.06 134.88 19.76 130.73 21.63 124.49 30.98 124.49 34.09 126.57 34.09 130.31 27.03 136.13 21.84 139.66 21.42 142.36 23.92 142.36 29.32 139.24 34.09 138.62 36.79 142.36 38.25 147.34 36.79 152.12 32.43 154.82 26.41 158.97 27.86 161.67 26.82 166.04 22.05 170.4 22.05 177.67 23.08 187.22 14.57 190.34 15.4 191.17 19.97 191.17 24.95 185.35 28.07 180.58 28.07 178.08 32.43 177.88 37 174.76 39.49 168.53 39.49 158.77 51.33 154.2 51.33 153.57 59.64 149 65.87 136.33 73.14 131.35 77.51 129.48 82.49 130.73 89.14 131.35 100.15 128.44 104.51 124.49 104.51 120.34 100.56 120.34 89.34 117.85 86.85 115.35 87.27 112.65 83.94 103.1 84.36 101.23 88.1 97.08 88.51 85.24 88.1 74.02 95.58 72.98 100.77 68.83 100.56 64.26 97.03 63.63 87.89 60.52 85.19 55.12 91.42 49.3 88.31 49.3 81.04 45.56 77.3 35.18 81.45 30.82 81.45 19.81 72.94 15.65 72.94 12.74 75.01 9.84 69.82 5.27 69.61 3.81 65.46 4.64 56.32 1.11 47.39 2.36 42.61 7.14 40.12 7.34 31.6 10.67 27.86 17.52 21.42 22.09 11.87 20.01 6.88 21.26 1.07 26.04 2.94 29.13 7.08"/>
</svg>